<svg version="1.1" id="Layer_1" xmlns="http://www.w3.org/2000/svg" xmlns:xlink="http://www.w3.org/1999/xlink" x="0px" y="0px"
	 width="100%" viewBox="0 0 2048 850" enable-background="new 0 0 2048 850" xml:space="preserve">
<path fill="#000000" opacity="1.000000" stroke="none" 
	d="
M2049.000000,391.000000 
	C2049.000000,544.302673 2049.000000,697.605408 2049.000000,851.000000 
	C1522.969116,851.000000 996.938171,851.000000 470.112732,850.664551 
	C469.990326,849.898987 470.619324,849.193054 471.341125,849.080017 
	C482.445312,847.340698 493.628265,846.026550 504.658447,843.912048 
	C519.128906,841.138062 533.625305,838.282227 547.838257,834.451599 
	C559.138550,831.406067 570.201111,827.264465 581.058655,822.846252 
	C593.743652,817.684387 606.216003,811.950928 618.542053,805.973389 
	C626.913452,801.913635 634.874939,797.008362 643.018860,792.479614 
	C649.767456,788.726807 656.678284,785.233398 663.218811,781.147339 
	C670.293518,776.727417 677.059753,771.807129 683.891602,767.006958 
	C691.606934,761.585999 699.255493,756.069885 706.910583,750.563843 
	C708.969604,749.082764 712.719727,747.288696 712.573730,745.988647 
	C712.310425,743.644470 709.791382,741.482483 708.041199,739.389221 
	C701.147644,731.144531 694.232727,722.916626 687.237244,714.758484 
	C680.827209,707.283142 674.293152,699.914307 667.832764,692.482117 
	C663.260742,687.222412 658.807800,681.854431 654.083252,676.736450 
	C653.253540,675.837646 650.914246,675.176147 650.002441,675.693115 
	C643.058228,679.630432 636.308472,683.909363 629.473206,688.040710 
	C618.987366,694.378662 608.480713,700.682434 597.984741,707.003662 
	C595.074036,708.756531 592.270386,710.721191 589.241943,712.237793 
	C582.374268,715.677063 575.323364,718.752747 568.480957,722.239197 
	C555.680298,728.761597 542.439148,733.982483 528.715393,738.363159 
	C515.746887,742.502747 502.913330,746.942322 489.406433,748.806702 
	C470.642426,751.396729 451.881866,754.734009 433.017822,755.648804 
	C417.822235,756.385681 402.425079,754.478577 387.211365,752.860840 
	C374.615356,751.521362 361.957611,749.686279 349.691467,746.615723 
	C336.740814,743.373779 324.202209,738.465515 311.526978,734.157532 
	C308.190186,733.023438 305.026611,731.386536 301.760956,730.035034 
	C293.732758,726.712524 285.484222,723.840942 277.713989,719.999695 
	C270.056061,716.213928 262.834839,711.529358 255.500290,707.109192 
	C248.549133,702.920105 241.190781,699.195068 234.912201,694.145935 
	C222.236526,683.952271 210.011597,673.176819 197.916382,662.290649 
	C190.864975,655.944214 183.843658,649.396057 177.841965,642.089966 
	C168.217209,630.373352 159.048553,618.228577 150.452957,605.737732 
	C144.147369,596.574646 138.674698,586.770996 133.558289,576.876709 
	C128.855545,567.782288 124.732033,558.335754 121.064171,548.771790 
	C116.332054,536.432739 111.835663,523.960266 108.129990,511.284454 
	C105.274582,501.516998 103.421272,491.407532 101.799759,481.341003 
	C99.828400,469.102600 97.873947,456.788513 97.182953,444.436096 
	C96.392952,430.313843 96.911514,416.112518 97.052284,401.947479 
	C97.096252,397.524200 97.450844,393.053955 98.200615,388.697723 
	C99.962692,378.459869 101.695831,368.194122 104.090897,358.093811 
	C107.294273,344.584747 110.710281,331.097076 114.809479,317.839722 
	C117.501312,309.133972 121.259911,300.712494 125.083534,292.413757 
	C129.988205,281.768738 134.892731,271.055634 140.802795,260.960571 
	C146.956146,250.449890 154.090347,240.484726 161.206223,230.575882 
	C166.362198,223.396225 171.873322,216.413101 177.798767,209.860184 
	C184.391876,202.568954 191.563751,195.792435 198.614609,188.926285 
	C205.126709,182.584763 211.334549,175.792099 218.533691,170.327530 
	C229.162384,162.259720 240.467072,155.064941 251.644867,147.744217 
	C258.994110,142.930939 266.633667,138.561630 274.127045,133.967087 
	C275.634460,133.042831 276.956696,131.735489 278.556000,131.055878 
	C286.386322,127.728424 294.216339,124.381760 302.169342,121.365929 
	C313.433411,117.094513 324.647095,112.573883 336.177368,109.155006 
	C346.697968,106.035507 357.542419,103.843781 368.369263,101.963326 
	C382.014587,99.593353 395.733246,96.982384 409.516632,96.222282 
	C431.607910,95.004028 453.748047,95.866722 475.597137,100.028465 
	C487.218842,102.242134 498.860199,104.435204 510.350555,107.223396 
	C516.904785,108.813805 523.158752,111.624725 529.573608,113.810585 
	C538.878967,116.981407 548.426208,119.564606 557.462830,123.366837 
	C565.905273,126.919098 573.925476,131.539871 581.936584,136.037689 
	C595.148315,143.455429 608.341003,150.926437 621.274902,158.812683 
	C629.825378,164.026184 638.057739,169.802612 646.136658,175.730148 
	C649.951660,178.529190 652.236206,177.954056 655.085938,174.515762 
	C661.586182,166.672867 668.343201,159.039139 675.112488,151.424057 
	C679.476624,146.514603 684.191040,141.912918 688.483154,136.944168 
	C692.441162,132.362244 695.857361,127.308838 699.860474,122.770325 
	C703.526306,118.614288 707.815002,115.006538 711.461487,110.835609 
	C712.266968,109.914352 712.212830,106.769981 711.391357,106.120552 
	C700.539551,97.541321 689.664734,88.966087 678.407837,80.933235 
	C670.659607,75.404175 662.337341,70.673279 654.220093,65.669395 
	C647.375000,61.449791 640.604187,57.074650 633.531860,53.267300 
	C624.398499,48.350357 615.101624,43.705002 605.683350,39.358253 
	C596.027283,34.901749 586.302185,30.496569 576.309937,26.893400 
	C565.405884,22.961405 554.232605,19.712181 543.043213,16.653475 
	C532.445557,13.756491 521.734497,11.196218 510.964355,9.029210 
	C499.335297,6.689376 487.574799,5.005987 475.892059,2.921769 
	C475.170074,2.792958 474.626556,1.663751 474.000000,0.999995 
	C998.881653,1.000000 1523.763306,1.000000 2049.000000,1.000000 
	C2049.000000,78.030548 2049.000000,155.061646 2048.699219,232.885651 
	C2047.934326,232.866348 2047.255371,232.107483 2047.038452,231.233932 
	C2043.976929,218.902176 2039.648071,206.952850 2032.041992,196.796295 
	C2021.924927,183.286514 2008.260620,174.330444 1992.186401,168.924759 
	C1976.410645,163.619522 1960.465088,162.086945 1943.857788,163.804977 
	C1930.872437,165.148331 1918.747192,169.017288 1907.128052,174.238434 
	C1900.323364,177.296097 1894.592285,182.742401 1888.376343,187.111343 
	C1887.108887,188.002075 1885.832153,188.879776 1883.806152,190.286987 
	C1883.806152,181.969040 1883.806152,174.583374 1883.806152,167.364838 
	C1862.271606,167.364838 1841.211304,167.364838 1820.000000,167.364838 
	C1820.000000,169.720901 1820.000000,171.712616 1820.000000,173.704330 
	C1820.000000,335.508728 1819.977295,497.313141 1820.043213,659.117554 
	C1820.048584,672.041016 1820.428589,684.975891 1821.066284,697.884216 
	C1821.703003,710.773315 1826.538818,722.110352 1834.520996,732.306213 
	C1841.883667,741.710999 1851.266968,748.180542 1862.148438,752.536865 
	C1869.987915,755.675232 1878.149414,757.709656 1887.000000,756.778809 
	C1887.000000,754.369141 1887.000000,752.388306 1887.000000,750.407471 
	C1887.000000,594.102112 1887.066650,437.796661 1886.902466,281.491425 
	C1886.885010,264.831573 1889.938354,249.368378 1901.228027,236.766098 
	C1905.508789,231.987457 1911.169312,227.410995 1917.102905,225.388977 
	C1925.994629,222.358871 1935.526733,220.413498 1945.252563,221.977493 
	C1954.463501,223.458694 1963.207275,225.613708 1970.201904,232.589096 
	C1979.519165,241.880661 1982.612061,253.765244 1982.786255,265.936157 
	C1983.355835,305.754211 1983.000000,345.585541 1983.000000,385.411743 
	C1983.000000,387.179596 1983.000000,388.947479 1983.000000,391.000000 
	C2005.394409,391.000000 2027.197144,391.000000 2049.000000,391.000000 
M1643.156982,263.638855 
	C1639.550049,258.881927 1633.914673,257.452942 1629.531006,260.183960 
	C1626.093750,262.325317 1624.610962,269.672363 1626.510376,274.051239 
	C1627.045654,275.285522 1627.318848,277.021759 1626.880371,278.224487 
	C1624.736938,284.103912 1622.309937,289.879913 1619.987427,295.694061 
	C1615.638306,306.581238 1611.356934,317.496063 1606.924927,328.349304 
	C1603.027344,337.893829 1598.916260,347.350922 1594.987061,356.882751 
	C1592.232666,363.564880 1589.820923,370.397675 1586.802368,376.954315 
	C1586.128418,378.418152 1583.571899,379.832123 1581.853516,379.867310 
	C1569.695190,380.116211 1557.529175,379.955902 1545.366211,380.030121 
	C1542.270508,380.048981 1540.752075,378.954254 1539.832520,375.776489 
	C1537.962891,369.313507 1535.510620,363.015747 1533.214722,356.680237 
	C1530.189209,348.331055 1527.018799,340.034027 1524.025391,331.673523 
	C1518.448975,316.099518 1512.984619,300.485382 1507.419312,284.907440 
	C1501.834961,269.276276 1496.222168,253.655136 1490.548584,238.056213 
	C1487.238525,228.955200 1483.626343,219.961639 1480.440430,210.818558 
	C1477.247437,201.655487 1471.394409,193.209625 1472.948486,182.711166 
	C1473.680176,177.767517 1469.798462,175.645950 1466.177856,174.217682 
	C1461.992310,172.566559 1456.986084,175.010376 1454.982178,179.181641 
	C1453.120483,183.056686 1453.507202,186.705704 1456.496094,190.074982 
	C1458.007568,191.778748 1459.429199,193.727905 1460.278198,195.815506 
	C1461.608643,199.087494 1462.261353,202.628494 1463.476440,205.955032 
	C1470.278198,224.576355 1477.280273,243.125183 1483.978271,261.783447 
	C1488.602295,274.664673 1492.750488,287.716125 1497.289795,300.628754 
	C1500.497437,309.753204 1503.986084,318.779236 1507.381226,327.837219 
	C1511.565186,339.000183 1515.831055,350.132660 1519.969849,361.312225 
	C1523.388062,370.545654 1526.551514,379.875916 1530.131348,389.044861 
	C1530.762451,390.661469 1532.873291,392.811462 1534.324219,392.829407 
	C1554.449951,393.078247 1574.579712,392.997742 1595.157837,392.997742 
	C1608.266602,361.340637 1621.318359,329.821167 1634.370239,298.301697 
	C1634.782715,298.216583 1635.195190,298.131470 1635.607666,298.046387 
	C1648.261841,329.665375 1660.915894,361.284363 1673.608521,392.999603 
	C1694.052002,392.999603 1714.373291,393.058289 1734.692627,392.873840 
	C1736.120117,392.860901 1738.335205,391.350189 1738.825928,390.030792 
	C1743.715820,376.884583 1748.287109,363.620178 1753.030273,350.418640 
	C1754.112183,347.407593 1755.679443,344.569122 1756.732056,341.549652 
	C1760.390503,331.054657 1763.783691,320.465454 1767.553223,310.011414 
	C1769.727051,303.982483 1772.724121,298.246460 1774.826904,292.196594 
	C1777.943726,283.229675 1780.314941,274.000946 1783.504028,265.062256 
	C1790.170654,246.376053 1797.073853,227.772537 1804.068359,209.206009 
	C1806.833618,201.866333 1810.076538,194.705475 1813.148682,187.483109 
	C1814.870850,183.434296 1814.076172,180.065903 1811.282959,176.638336 
	C1808.253784,172.921341 1804.135864,173.273407 1800.856934,174.366074 
	C1797.488892,175.488495 1795.657227,179.118484 1796.002563,183.147369 
	C1796.192993,185.368790 1797.103149,187.801819 1796.494629,189.770370 
	C1794.067871,197.622055 1791.316162,205.383102 1788.417603,213.077087 
	C1783.408081,226.375168 1777.960449,239.512360 1773.153809,252.881424 
	C1769.617554,262.717438 1767.101807,272.918823 1763.612061,282.773499 
	C1757.969116,298.709229 1751.941040,314.509491 1745.989990,330.334839 
	C1743.441284,337.112335 1740.524048,343.753143 1738.049683,350.556152 
	C1734.488403,360.346619 1731.178101,370.228424 1727.840942,379.840332 
	C1712.565552,379.840332 1697.930420,379.840332 1682.878540,379.840332 
	C1681.684814,376.132751 1680.704956,372.376190 1679.278687,368.797455 
	C1675.415283,359.102875 1671.384521,349.474548 1667.372314,339.839905 
	C1666.002075,336.549866 1664.360229,333.369568 1663.066284,330.051849 
	C1659.175781,320.077576 1655.437744,310.043884 1651.558960,300.064972 
	C1648.481567,292.147858 1645.270508,284.282715 1642.171753,276.373749 
	C1641.954956,275.820831 1642.121826,275.088226 1642.205811,274.451782 
	C1642.682251,270.841339 1643.187866,267.234772 1644.416992,264.030334 
	C1646.271240,267.646179 1648.343262,271.168915 1649.936890,274.896179 
	C1653.927734,284.230042 1657.487671,293.752075 1661.623169,303.018951 
	C1665.754028,312.275269 1670.604126,321.210907 1674.723389,330.471985 
	C1680.374756,343.177582 1685.634521,356.057434 1691.040771,368.812622 
	C1701.465576,368.812622 1711.598633,368.812622 1721.128296,368.812622 
	C1723.405884,362.873749 1725.524048,357.291626 1727.688843,351.727692 
	C1729.026611,348.289368 1730.601440,344.934662 1731.780029,341.444519 
	C1735.079224,331.674713 1738.063477,321.796387 1741.474731,312.067047 
	C1746.594849,297.464539 1751.910522,282.929474 1757.264648,268.410614 
	C1760.331665,260.094269 1763.644531,251.868668 1766.838501,243.599045 
	C1771.550293,231.399246 1776.190918,219.171387 1780.988159,207.005234 
	C1783.569824,200.458008 1786.263428,193.945694 1789.181152,187.542740 
	C1792.338257,180.614731 1788.603760,174.496368 1781.248413,173.896194 
	C1772.812500,173.207809 1771.525391,178.358200 1772.307373,186.721558 
	C1772.438232,188.121155 1772.944092,189.691727 1772.507690,190.907211 
	C1766.681396,207.134872 1760.864014,223.368744 1754.741699,239.486115 
	C1750.057739,251.816620 1744.726074,263.901947 1740.085083,276.247681 
	C1735.464233,288.539581 1731.326660,301.013763 1727.013184,313.420563 
	C1724.600464,320.360321 1722.475952,327.408661 1719.828369,334.256073 
	C1717.175171,341.118469 1714.033203,347.791931 1710.909424,355.000000 
	C1709.367065,355.000000 1707.164795,354.708923 1705.070557,355.060822 
	C1700.764526,355.784363 1698.889648,353.174194 1697.458130,349.935486 
	C1695.973389,346.576202 1694.734619,343.109161 1693.304321,339.724731 
	C1688.559326,328.496704 1683.906250,317.227234 1678.975830,306.080780 
	C1672.598267,291.663300 1666.002563,277.342163 1659.465820,262.995514 
	C1658.063354,259.917480 1656.370605,256.967102 1655.053467,253.855545 
	C1650.961670,244.189194 1647.113647,234.417480 1642.886353,224.811874 
	C1641.649536,222.001282 1641.227539,219.945236 1642.338379,216.724747 
	C1643.260132,214.051926 1642.321655,209.496704 1640.422607,207.365707 
	C1637.090454,203.626480 1631.806152,204.259354 1627.695190,206.277161 
	C1626.055664,207.081909 1625.659912,210.772598 1625.076660,213.239059 
	C1624.749878,214.621399 1625.318726,216.190994 1625.267822,217.668808 
	C1625.187744,219.992859 1625.525879,222.573608 1624.643677,224.588882 
	C1618.250366,239.190384 1611.528076,253.647354 1605.043823,268.209717 
	C1599.603149,280.428070 1594.389893,292.747467 1588.992676,304.985413 
	C1581.613647,321.716919 1574.155396,338.413544 1566.786865,355.000000 
	C1564.678101,355.000000 1563.132568,354.753113 1561.696045,355.044189 
	C1556.416870,356.113800 1554.240723,353.096588 1553.027832,348.725555 
	C1552.121948,345.460876 1551.516357,342.095093 1550.384277,338.914124 
	C1546.329468,327.521332 1542.069458,316.201752 1537.958252,304.828766 
	C1532.967285,291.022461 1528.091797,277.174255 1523.077881,263.376373 
	C1520.872192,257.306763 1518.258545,251.381561 1516.164185,245.276123 
	C1512.507690,234.615784 1509.318970,223.792358 1505.544312,213.175934 
	C1501.801880,202.650101 1496.491943,192.593796 1496.941406,180.946960 
	C1496.974243,180.095749 1496.401733,179.089249 1495.837891,178.368347 
	C1492.107056,173.598587 1488.124756,172.766907 1482.894775,175.560776 
	C1479.377197,177.439850 1477.840088,182.215637 1479.602295,187.076569 
	C1483.109131,196.751221 1486.800659,206.359528 1490.470825,215.974243 
	C1494.257935,225.894913 1498.107788,235.791672 1501.936768,245.696350 
	C1503.266724,249.136673 1504.759155,252.521454 1505.929565,256.014679 
	C1508.994873,265.163635 1511.706909,274.435883 1514.957520,283.516602 
	C1519.803345,297.054047 1525.098389,310.430267 1530.001709,323.947815 
	C1534.459839,336.238464 1538.526123,348.672089 1543.050537,360.937408 
	C1544.121338,363.839874 1546.155884,368.475372 1548.052246,368.632568 
	C1557.598389,369.423676 1567.245605,368.995728 1576.800293,368.995728 
	C1576.964722,367.132751 1576.739990,365.659271 1577.250244,364.513000 
	C1583.090210,351.393402 1589.118530,338.357483 1594.942505,325.230957 
	C1600.604858,312.468750 1605.970581,299.574310 1611.686279,286.836578 
	C1616.516968,276.071411 1621.751709,265.488068 1626.628662,254.743057 
	C1628.955566,249.616776 1630.866943,244.301910 1633.360840,238.089935 
	C1636.361816,244.772766 1638.885864,250.147415 1641.183716,255.617188 
	C1642.288208,258.246155 1642.965332,261.054657 1643.156982,263.638855 
M360.678894,221.063812 
	C366.255585,219.455353 371.826111,217.825180 377.410126,216.242523 
	C394.102722,211.511429 411.115479,207.946426 428.448334,208.226562 
	C442.826874,208.458984 457.303192,209.889145 471.500397,212.222946 
	C488.403503,215.001572 504.825500,220.189590 520.462585,227.279022 
	C528.984314,231.142578 537.109009,235.957733 545.153442,240.776657 
	C552.899841,245.417099 560.710693,250.111725 567.769165,255.697433 
	C576.288513,262.439117 576.014832,262.855774 582.973999,255.541763 
	C583.318542,255.179672 583.696777,254.848129 584.025085,254.472412 
	C590.881897,246.625412 597.753906,238.791565 604.578674,230.916748 
	C608.374512,226.536865 611.973633,221.981445 615.871399,217.696152 
	C620.661743,212.429565 625.671204,207.362259 631.248291,201.514267 
	C627.526062,199.372757 624.597229,198.056808 622.092590,196.175842 
	C615.234680,191.025604 608.923035,185.058762 601.717407,180.482178 
	C591.413574,173.937775 580.628723,168.111710 569.821411,162.410919 
	C560.716675,157.608231 551.582336,152.591766 541.931763,149.157120 
	C527.532104,144.032257 513.373901,137.988586 497.966736,135.902985 
	C484.114502,134.027878 470.442139,130.087570 456.565094,129.317612 
	C439.045715,128.345581 421.333618,128.843933 403.827393,130.243484 
	C388.629791,131.458466 373.490692,134.275482 358.540314,137.408463 
	C348.496582,139.513199 338.416046,142.489700 329.077728,146.689758 
	C310.987274,154.826248 293.006714,163.390167 275.755341,173.146774 
	C263.674438,179.979172 252.357193,188.457535 241.662582,197.358673 
	C231.828613,205.543549 223.102020,215.102890 214.218094,224.373444 
	C204.573547,234.437744 195.475037,244.969711 188.336563,257.078766 
	C182.758667,266.540649 176.789627,275.772217 170.977753,285.095703 
	C163.856522,296.519775 159.184341,308.967834 154.480164,321.544434 
	C150.043121,333.406799 146.951157,345.520996 143.456329,357.613617 
	C138.209763,375.767487 137.163422,394.354858 136.284409,412.871643 
	C135.558670,428.159424 137.890762,443.567291 137.852234,458.919373 
	C137.808060,476.505310 143.241333,492.979004 147.326309,509.634094 
	C150.334625,521.899475 155.685455,533.685425 160.862289,545.297241 
	C166.055725,556.946228 171.833313,568.403381 178.267670,579.411011 
	C184.467468,590.017395 191.538925,600.157532 198.795471,610.087341 
	C203.338974,616.304626 208.695999,621.987183 214.112167,627.492371 
	C221.551041,635.053528 229.155914,642.488342 237.126938,649.478638 
	C244.949799,656.338989 253.021027,663.000061 261.522919,668.981567 
	C272.983154,677.044250 284.913269,684.324646 297.616638,690.509949 
	C311.425110,697.233398 325.352844,703.283630 339.910858,708.244934 
	C353.037170,712.718201 366.370789,715.840454 379.962067,717.961914 
	C393.020874,720.000122 406.159058,722.374146 419.313751,722.737122 
	C435.301544,723.178284 451.404480,722.314331 467.342407,720.801514 
	C480.404938,719.561646 493.535217,717.435547 506.203217,714.073608 
	C519.801147,710.464905 533.548218,706.899963 546.255615,700.388794 
	C557.941772,694.400940 569.945801,689.030273 581.593506,682.971802 
	C589.023438,679.107239 596.285767,674.818848 603.214111,670.117615 
	C611.560364,664.454163 619.266663,657.839478 627.675781,652.280762 
	C630.998352,650.084412 630.057434,648.226196 628.626770,646.353577 
	C625.920105,642.810791 622.787842,639.587769 619.768372,636.290527 
	C614.553772,630.596191 609.238464,624.993469 604.059021,619.267639 
	C595.793274,610.130005 587.652100,600.878845 579.297363,591.824097 
	C578.580200,591.046814 576.314636,590.766479 575.362000,591.305176 
	C571.866089,593.281921 568.659241,595.761597 565.273438,597.943054 
	C557.967651,602.650269 550.696960,607.419861 543.263733,611.919128 
	C536.429321,616.055908 529.731201,620.697083 522.382019,623.640076 
	C510.765991,628.291687 498.824158,632.366211 486.708954,635.469971 
	C474.000946,638.725647 461.015320,641.777649 447.991638,642.722961 
	C426.301941,644.297302 404.576508,642.989136 383.447388,636.954285 
	C371.978821,633.678650 360.335327,630.772278 349.255554,626.455200 
	C340.332367,622.978394 332.042664,617.800903 323.647949,613.065796 
	C316.723267,609.159790 309.703491,605.266235 303.372253,600.507263 
	C296.714264,595.502625 290.715942,589.591553 284.623932,583.869385 
	C275.092010,574.916138 265.815826,565.720947 258.810608,554.515869 
	C256.076080,550.141907 252.859299,546.065430 250.193497,541.653259 
	C244.693405,532.549988 238.558167,523.692444 234.273804,514.029114 
	C229.406219,503.050293 226.169662,491.335754 222.450684,479.867554 
	C221.245026,476.149719 220.753494,472.200287 219.812531,467.780029 
	C299.665619,467.780029 378.730896,467.780029 457.627136,467.780029 
	C457.627136,439.591125 457.627136,411.863892 457.627136,383.889099 
	C378.292480,383.889099 299.330414,383.889099 220.212708,383.889099 
	C220.129898,383.028717 219.893585,382.359558 220.035065,381.783112 
	C223.964645,365.771881 228.359512,349.855957 235.639709,335.027496 
	C240.161438,325.817566 245.618790,317.016998 251.230179,308.406799 
	C256.307709,300.615723 261.798615,293.024628 267.783325,285.914398 
	C273.385406,279.258728 279.828552,273.303772 285.990540,267.129272 
	C289.715057,263.397247 293.290527,259.407349 297.487335,256.276428 
	C309.598633,247.241180 321.686615,238.102081 335.702881,232.041794 
	C343.808624,228.537064 351.904968,225.010513 360.678894,221.063812 
M1035.000000,722.500000 
	C1035.000000,714.072693 1035.000000,705.645325 1035.000000,696.761963 
	C982.289795,696.761963 930.231201,696.761963 878.387573,696.761963 
	C878.387573,675.227112 878.387573,654.165649 878.387573,632.815430 
	C923.048523,632.815430 967.322266,632.815430 1011.726562,632.815430 
	C1011.726562,614.458374 1011.726562,596.398376 1011.726562,577.866943 
	C967.062500,577.866943 922.669556,577.866943 878.335815,577.866943 
	C878.335815,557.331848 878.335815,537.271301 878.335815,516.743103 
	C928.729126,516.743103 978.787964,516.743103 1028.779053,516.743103 
	C1028.779053,498.327759 1028.779053,480.385223 1028.779053,462.246277 
	C955.503418,462.246277 882.448730,462.246277 809.268433,462.246277 
	C809.268433,559.211975 809.268433,655.931152 809.268433,752.706421 
	C884.591797,752.706421 959.646423,752.706421 1035.000000,752.706421 
	C1035.000000,742.776733 1035.000000,733.138367 1035.000000,722.500000 
M851.504700,123.995613 
	C848.699768,125.859230 845.530945,127.347397 843.153198,129.651764 
	C833.156067,139.340393 822.985291,148.818100 815.484558,160.844574 
	C809.175049,170.961182 803.759277,181.247711 799.439941,192.479965 
	C792.690491,210.031723 790.817993,227.955566 791.052673,246.356354 
	C791.172668,255.772400 790.714722,265.403442 792.516235,274.543488 
	C795.478210,289.570801 800.358826,304.058563 807.740601,317.781647 
	C813.550842,328.583282 820.494141,338.337097 828.779663,347.160675 
	C837.749146,356.712494 847.612305,365.053101 859.005798,371.988129 
	C870.547241,379.013123 882.351624,384.874969 895.228149,388.583405 
	C916.701294,394.767700 938.360107,398.179657 960.998413,396.308685 
	C976.575989,395.021210 991.792786,392.253296 1006.331116,387.430603 
	C1018.934570,383.249695 1031.185791,376.900787 1042.239014,369.491028 
	C1051.622925,363.200439 1059.022705,353.971619 1067.409058,346.159546 
	C1070.218628,343.542267 1068.656006,342.010590 1066.594727,340.162048 
	C1056.487061,331.097870 1046.435425,321.971069 1036.359375,312.871674 
	C1032.572632,309.451904 1028.773193,306.046265 1024.763916,302.440338 
	C1005.660156,323.559570 983.096436,336.405151 954.479248,337.040253 
	C926.246765,337.666840 901.698547,328.612915 882.616150,307.844177 
	C857.653931,280.675995 846.109131,218.833847 888.940674,176.974991 
	C904.559448,161.710876 925.147278,155.114731 946.862305,154.144852 
	C978.186096,152.745819 1004.109253,164.837402 1024.800659,188.765182 
	C1040.021973,174.692963 1054.681030,161.140564 1069.545776,147.397995 
	C1058.672119,132.897385 1044.983154,122.512787 1029.892578,114.157089 
	C1019.212280,108.243408 1008.042419,103.032951 995.740601,100.885872 
	C985.846985,99.159111 976.109314,96.111305 966.162476,95.230751 
	C954.901489,94.233856 943.476257,94.747147 932.138489,95.107437 
	C926.463379,95.287773 920.694702,96.081055 915.193970,97.482468 
	C901.942566,100.858498 888.314758,103.169548 876.160034,110.016541 
	C868.133789,114.537895 860.067810,118.988846 851.504700,123.995613 
M1682.638916,526.990662 
	C1677.288696,526.327087 1671.928711,525.053711 1666.590698,525.140686 
	C1658.234131,525.276672 1649.850464,526.004700 1641.553589,527.068970 
	C1625.835815,529.085022 1611.144531,534.397827 1597.376099,542.185547 
	C1592.729370,544.813721 1587.587402,547.147827 1583.957886,550.870300 
	C1576.763794,558.248474 1568.765503,564.857361 1563.263794,573.968689 
	C1557.412720,583.658508 1550.947266,592.927185 1548.422729,604.177063 
	C1546.509766,612.701599 1543.812500,621.201477 1543.197021,629.835876 
	C1541.705933,650.748840 1543.625488,671.415344 1553.113403,690.552063 
	C1557.237915,698.870972 1561.427124,707.611023 1567.561890,714.366150 
	C1575.362915,722.955872 1583.810059,731.353333 1594.299561,737.052979 
	C1604.942261,742.835754 1615.588501,748.620422 1627.640747,750.994995 
	C1638.142944,753.064087 1648.598633,756.010315 1659.203979,756.772461 
	C1676.775635,758.035217 1694.303223,756.732788 1711.495972,752.048279 
	C1731.159668,746.690613 1748.433594,737.472229 1762.154053,722.194824 
	C1763.050659,721.196533 1763.660889,718.547058 1763.041382,717.808044 
	C1759.081055,713.083496 1754.689697,708.723877 1750.534302,704.158569 
	C1744.148071,697.142395 1737.786865,690.101685 1731.522583,682.976929 
	C1729.351440,680.507507 1727.730591,680.566895 1725.468018,682.967041 
	C1718.536377,690.320740 1709.723389,694.648926 1700.426025,698.249146 
	C1687.394287,703.295593 1674.055054,704.265320 1660.368774,702.013794 
	C1642.887573,699.137878 1627.691040,692.186523 1617.605225,676.933655 
	C1614.347290,672.006470 1610.030396,667.095764 1611.269775,659.849609 
	C1667.003418,659.849609 1722.418823,659.849609 1778.006958,659.849609 
	C1778.359131,655.358093 1778.993286,651.267395 1778.935547,647.186584 
	C1778.809204,638.261536 1778.858032,629.280457 1777.832275,620.438538 
	C1777.001099,613.273132 1774.949097,606.208435 1772.969360,599.232300 
	C1771.749512,594.934204 1769.976807,590.710876 1767.869751,586.764954 
	C1764.299927,580.079041 1761.171631,572.840942 1756.240112,567.265869 
	C1746.682373,556.460327 1736.383789,546.525146 1722.906738,539.911804 
	C1713.513794,535.302612 1703.970703,531.810486 1694.034668,529.045898 
	C1690.611816,528.093567 1687.043213,527.666138 1682.638916,526.990662 
M1338.724854,394.999908 
	C1345.984985,394.667389 1353.242188,394.210541 1360.506104,394.029633 
	C1373.469971,393.706787 1385.708740,389.930908 1397.783691,385.856750 
	C1408.743530,382.158813 1419.049316,376.491791 1427.878540,369.190521 
	C1435.625610,362.784149 1442.126343,354.720459 1448.500244,346.840881 
	C1456.836670,336.535309 1462.311279,324.882721 1465.401489,311.703827 
	C1468.997803,296.367035 1471.684326,281.169128 1468.909058,265.554169 
	C1467.075317,255.236298 1465.388672,244.686737 1461.731445,234.956818 
	C1458.142334,225.408066 1453.150757,215.983673 1446.914429,207.948410 
	C1440.943726,200.255341 1432.707275,194.273148 1425.238892,187.801987 
	C1415.845459,179.662994 1404.712280,174.810257 1393.003540,170.866592 
	C1379.795654,166.417999 1366.360107,163.213211 1352.456177,163.141251 
	C1342.277344,163.088593 1331.960571,163.552536 1321.946411,165.228394 
	C1312.124268,166.872147 1302.327271,169.610519 1293.025879,173.186584 
	C1281.056763,177.788330 1269.993164,184.654694 1260.646606,193.363907 
	C1252.917603,200.565964 1246.086792,208.986008 1240.097168,217.716492 
	C1235.687134,224.144318 1232.378174,231.682236 1230.189209,239.194809 
	C1227.027954,250.044556 1224.028809,261.242340 1223.365112,272.434235 
	C1222.702759,283.603149 1224.330688,295.059570 1226.178589,306.186676 
	C1228.414307,319.649078 1233.964355,332.326782 1241.567261,343.437775 
	C1247.283203,351.791382 1253.296021,360.540344 1262.478271,366.090790 
	C1266.472046,368.505066 1269.841064,371.980927 1273.894653,374.262787 
	C1282.446411,379.076813 1290.842163,384.794800 1300.073730,387.619690 
	C1312.252808,391.346558 1325.172852,392.652496 1338.724854,394.999908 
M1227.955444,661.468201 
	C1227.124756,660.961304 1226.025269,660.646362 1225.505127,659.917786 
	C1220.394531,652.759583 1215.380371,645.532593 1210.417480,638.437622 
	C1237.952271,602.208923 1265.488159,565.978821 1293.067383,529.691650 
	C1292.488525,529.362244 1292.230103,529.086548 1291.971069,529.086060 
	C1269.476318,529.044128 1246.981445,529.008728 1224.486816,529.048096 
	C1223.448486,529.049927 1222.025146,529.422424 1221.434204,530.151611 
	C1215.865356,537.023438 1210.341797,543.937256 1205.003540,550.989014 
	C1201.207153,556.004028 1197.792725,561.306580 1194.062622,566.373779 
	C1191.160278,570.316528 1187.989990,574.060669 1185.018799,577.954224 
	C1181.393188,582.705322 1177.851440,587.520386 1174.004272,592.668030 
	C1170.144897,586.961609 1166.789062,581.810364 1163.240479,576.795532 
	C1157.306030,568.409119 1151.358276,560.027832 1145.208618,551.799377 
	C1140.146240,545.025696 1134.430420,538.712280 1129.747437,531.698669 
	C1128.140381,529.292175 1126.792725,528.986450 1124.539795,528.988464 
	C1102.543335,529.007629 1080.546753,528.996277 1058.550293,529.008606 
	C1057.104614,529.009399 1055.658813,529.133423 1052.399658,529.283813 
	C1080.604492,566.896851 1108.055786,603.504944 1135.606323,640.245544 
	C1107.249023,677.311646 1078.552490,714.821045 1049.343750,753.000000 
	C1072.503052,753.000000 1094.646118,752.757324 1116.776611,753.176025 
	C1122.096191,753.276733 1125.192261,750.926025 1127.972168,747.406677 
	C1130.863525,743.746155 1133.259644,739.699097 1136.027710,735.935425 
	C1144.068604,725.002502 1152.199585,714.135803 1160.270630,703.224915 
	C1164.227539,697.875549 1168.129761,692.485840 1172.239380,686.864685 
	C1174.390991,689.393494 1176.201904,691.199707 1177.638794,693.266052 
	C1184.144897,702.621948 1190.477173,712.098999 1197.004272,721.440063 
	C1202.818726,729.761047 1208.853638,737.927612 1214.699341,746.227112 
	C1217.907593,750.782043 1221.473267,753.341248 1227.736084,753.189026 
	C1248.387207,752.687195 1269.058228,753.005737 1289.721558,752.989380 
	C1291.450439,752.987976 1293.179443,752.837891 1295.395874,752.733948 
	C1294.775879,751.280334 1294.568970,750.319641 1294.032227,749.607544 
	C1285.656494,738.497742 1277.200806,727.448059 1268.841553,716.325989 
	C1262.074097,707.321716 1255.416138,698.235229 1248.700317,689.192200 
	C1241.966675,680.125183 1235.221313,671.066711 1227.955444,661.468201 
M1404.388794,584.936157 
	C1435.869995,573.638611 1459.032959,584.365051 1475.721436,611.972168 
	C1492.940674,602.633667 1510.047241,593.356323 1528.162231,583.532104 
	C1523.575806,575.889404 1520.006592,567.981262 1514.651611,561.563049 
	C1509.168701,554.991516 1502.524536,548.955933 1495.317383,544.368774 
	C1486.843506,538.975464 1478.308228,533.242798 1467.735107,531.727844 
	C1459.288696,530.517700 1451.124023,527.098877 1442.672852,526.228149 
	C1433.089111,525.240845 1423.244507,525.214111 1413.660522,526.200439 
	C1401.913818,527.409180 1390.093140,529.282288 1378.736572,532.428162 
	C1370.635132,534.672485 1363.120483,539.251709 1355.585938,543.245422 
	C1351.049927,545.649719 1346.663940,548.564026 1342.775269,551.906128 
	C1337.769165,556.208679 1333.156738,561.012207 1328.697144,565.894592 
	C1324.894165,570.058228 1320.835938,574.246582 1318.151855,579.118774 
	C1313.121704,588.249939 1307.690918,597.301819 1305.921875,607.909180 
	C1304.482544,616.540588 1301.951904,625.042114 1301.148438,633.716370 
	C1299.539062,651.092407 1302.694946,668.082947 1308.900269,684.213745 
	C1313.433716,695.998657 1319.932007,706.864685 1328.678467,716.383972 
	C1337.889404,726.408752 1347.812622,735.264099 1360.333252,740.803223 
	C1369.152466,744.704895 1377.870117,749.164612 1387.086670,751.772522 
	C1407.495239,757.546997 1428.299927,758.707153 1449.395020,755.111023 
	C1470.571411,751.500916 1489.831543,743.929077 1505.897583,729.443298 
	C1510.390991,725.391785 1514.233276,720.493835 1517.787964,715.561646 
	C1521.167725,710.871948 1523.840698,705.662720 1526.645142,700.583069 
	C1526.946655,700.037048 1526.320557,698.409363 1525.672607,698.000977 
	C1521.408325,695.314209 1517.069458,692.735168 1512.662109,690.288025 
	C1502.219116,684.489624 1491.699097,678.829956 1481.261475,673.022156 
	C1475.905273,670.041809 1475.171997,670.238281 1472.105957,675.491150 
	C1462.190674,692.479126 1446.768188,700.476074 1427.692017,701.918030 
	C1418.599609,702.605347 1410.058594,699.835999 1401.674316,696.364258 
	C1390.973755,691.933289 1383.126099,684.463379 1377.340942,674.701050 
	C1372.921265,667.243164 1370.274658,659.460876 1369.669067,650.415283 
	C1368.678101,635.609558 1369.058838,621.614014 1376.829590,608.341858 
	C1383.217407,597.432007 1391.766724,589.483948 1404.388794,584.936157 
M1167.434204,235.933777 
	C1169.573608,234.508591 1171.536743,232.589508 1173.885620,231.751129 
	C1180.831787,229.271744 1187.797485,226.215530 1195.004028,225.261612 
	C1203.450562,224.143570 1212.158691,225.000000 1220.665527,225.000000 
	C1220.665527,203.981003 1220.665527,183.589142 1220.665527,162.769531 
	C1192.216431,163.885361 1166.045776,169.896805 1144.847168,192.153015 
	C1144.847168,182.848877 1144.847168,175.090408 1144.847168,167.296417 
	C1123.401123,167.296417 1102.346313,167.296417 1081.294434,167.296417 
	C1081.294434,241.963150 1081.294434,316.333038 1081.294434,390.680847 
	C1103.311890,390.680847 1125.033325,390.680847 1147.000000,390.680847 
	C1147.000000,388.551117 1147.000000,386.738831 1147.000000,384.926544 
	C1147.000000,352.608612 1146.960938,320.290558 1147.044067,287.972839 
	C1147.055908,283.383209 1147.593262,278.789001 1148.004395,274.207428 
	C1149.359497,259.110413 1155.375000,246.276016 1167.434204,235.933777 
M521.500000,467.000000 
	C539.988892,467.000000 558.482605,466.746643 576.964966,467.093201 
	C588.397888,467.307587 598.045837,464.142395 606.484924,456.185883 
	C612.645874,450.377228 617.005554,443.437897 618.754150,435.627319 
	C622.381653,419.424835 618.663269,405.164276 606.004395,393.182129 
	C597.873169,385.485535 588.633118,382.175323 578.075928,382.084137 
	C549.595154,381.838226 521.110901,382.000000 492.627991,382.000000 
	C490.856873,382.000000 489.085724,382.000000 487.299255,382.000000 
	C487.299255,410.613922 487.299255,438.663788 487.299255,467.000000 
	C498.564209,467.000000 509.532104,467.000000 521.500000,467.000000 
M1511.063477,201.310226 
	C1512.028198,203.540222 1513.183716,205.708740 1513.924805,208.010696 
	C1517.380859,218.745071 1520.409912,229.627243 1524.181885,240.246948 
	C1529.147461,254.226776 1534.885986,267.931458 1539.886108,281.899811 
	C1545.537476,297.686920 1550.739868,313.634766 1556.135254,329.513550 
	C1557.558228,333.701813 1558.971680,337.893341 1560.734619,343.103058 
	C1561.861328,341.012573 1562.529419,339.975983 1563.006226,338.857819 
	C1568.697510,325.509735 1574.364136,312.151093 1580.029419,298.791870 
	C1583.728027,290.070374 1587.398560,281.336945 1591.109375,272.620636 
	C1595.703491,261.829651 1600.333740,251.053970 1604.932983,240.265182 
	C1606.961670,235.506454 1608.841919,230.681351 1610.982544,225.974167 
	C1615.832397,215.309891 1618.532471,203.684113 1625.483032,193.950607 
	C1628.201050,190.144287 1627.381226,186.102600 1624.936157,182.542404 
	C1621.852539,178.052460 1616.907227,179.767578 1613.002563,180.316086 
	C1609.346924,180.829575 1608.829468,184.623245 1608.898926,188.244400 
	C1608.959717,191.420151 1608.783569,194.868973 1607.613037,197.750763 
	C1603.672485,207.451416 1599.165649,216.920120 1595.018433,226.539261 
	C1590.042847,238.079529 1585.202148,249.678085 1580.324707,261.260529 
	C1575.194214,273.444031 1570.141479,285.660797 1564.915894,297.803253 
	C1564.158691,299.562805 1562.627930,300.989471 1561.179199,302.942139 
	C1559.692505,298.493408 1558.698242,295.262909 1557.534790,292.094513 
	C1555.540527,286.663300 1553.258545,281.331787 1551.423828,275.849121 
	C1547.995972,265.605042 1544.969238,255.225616 1541.473999,245.005661 
	C1535.425659,227.320129 1529.105591,209.727631 1523.033081,192.050201 
	C1522.458618,190.378021 1522.459839,188.300980 1522.832397,186.547607 
	C1524.220337,180.016327 1520.174072,174.428741 1513.957764,173.938080 
	C1505.224121,173.248672 1503.314941,182.835190 1506.077637,189.829056 
	C1507.515747,193.469620 1509.346802,196.954910 1511.063477,201.310226 
M1701.435181,295.938782 
	C1699.122559,290.286804 1696.888428,284.601105 1694.478394,278.990997 
	C1691.043335,270.994385 1687.487915,263.049377 1683.968384,255.089172 
	C1677.452026,240.350876 1670.493530,225.787277 1664.594238,210.806305 
	C1661.881226,203.916977 1656.838379,197.342819 1658.908325,189.017990 
	C1659.216431,187.778503 1658.569946,186.089951 1657.904053,184.858459 
	C1655.602173,180.601990 1649.214478,178.937744 1645.138550,181.367325 
	C1640.910278,183.887833 1639.803101,191.185089 1642.390381,195.987137 
	C1645.528564,201.811447 1648.414185,207.800552 1650.979858,213.899033 
	C1657.276123,228.865219 1663.235107,243.973190 1669.512329,258.947662 
	C1672.804810,266.802368 1676.455444,274.507935 1679.993652,282.258362 
	C1682.272461,287.250092 1684.799927,292.133698 1686.932007,297.185669 
	C1690.290039,305.142242 1693.302246,313.244843 1696.666992,321.198486 
	C1698.865845,326.396149 1701.474121,331.419312 1703.800781,336.565002 
	C1704.457520,338.017456 1704.767578,339.626678 1705.236572,341.164032 
	C1705.851196,341.200317 1706.465820,341.236603 1707.080444,341.272888 
	C1709.464233,334.332733 1711.808960,327.378845 1714.241699,320.455902 
	C1717.380859,311.522552 1720.612061,302.621521 1723.763794,293.692535 
	C1726.608521,285.633240 1729.238770,277.494324 1732.251465,269.498962 
	C1737.248413,256.237488 1742.636963,243.122604 1747.563354,229.835754 
	C1752.873169,215.514053 1756.263184,200.472076 1763.931152,187.038391 
	C1766.278198,182.926620 1764.889771,178.954041 1762.096558,175.748932 
	C1759.012817,172.210510 1753.934570,171.665558 1749.653809,175.064819 
	C1747.591553,176.702560 1745.773438,180.821503 1746.369019,183.179321 
	C1747.601562,188.059784 1746.533691,192.116409 1744.898315,196.437881 
	C1740.049438,209.250229 1735.212646,222.068695 1730.552490,234.950378 
	C1726.562622,245.979691 1722.891113,257.123871 1718.945312,268.169586 
	C1716.773071,274.250183 1714.226929,280.196838 1712.031616,286.269775 
	C1710.021240,291.831055 1708.255737,297.480835 1706.065674,304.040497 
	C1704.257568,300.755096 1703.093750,298.640198 1701.435181,295.938782 
z"/>
<path fill="#B7B6B4" opacity="1.000000" stroke="none" 
	d="
M473.531342,0.999995 
	C474.626556,1.663751 475.170074,2.792958 475.892059,2.921769 
	C487.574799,5.005987 499.335297,6.689376 510.964355,9.029210 
	C521.734497,11.196218 532.445557,13.756491 543.043213,16.653475 
	C554.232605,19.712181 565.405884,22.961405 576.309937,26.893400 
	C586.302185,30.496569 596.027283,34.901749 605.683350,39.358253 
	C615.101624,43.705002 624.398499,48.350357 633.531860,53.267300 
	C640.604187,57.074650 647.375000,61.449791 654.220093,65.669395 
	C662.337341,70.673279 670.659607,75.404175 678.407837,80.933235 
	C689.664734,88.966087 700.539551,97.541321 711.391357,106.120552 
	C712.212830,106.769981 712.266968,109.914352 711.461487,110.835609 
	C707.815002,115.006538 703.526306,118.614288 699.860474,122.770325 
	C695.857361,127.308838 692.441162,132.362244 688.483154,136.944168 
	C684.191040,141.912918 679.476624,146.514603 675.112488,151.424057 
	C668.343201,159.039139 661.586182,166.672867 655.085938,174.515762 
	C652.236206,177.954056 649.951660,178.529190 646.136658,175.730148 
	C638.057739,169.802612 629.825378,164.026184 621.274902,158.812683 
	C608.341003,150.926437 595.148315,143.455429 581.936584,136.037689 
	C573.925476,131.539871 565.905273,126.919098 557.462830,123.366837 
	C548.426208,119.564606 538.878967,116.981407 529.573608,113.810585 
	C523.158752,111.624725 516.904785,108.813805 510.350555,107.223396 
	C498.860199,104.435204 487.218842,102.242134 475.597137,100.028465 
	C453.748047,95.866722 431.607910,95.004028 409.516632,96.222282 
	C395.733246,96.982384 382.014587,99.593353 368.369263,101.963326 
	C357.542419,103.843781 346.697968,106.035507 336.177368,109.155006 
	C324.647095,112.573883 313.433411,117.094513 302.169342,121.365929 
	C294.216339,124.381760 286.386322,127.728424 278.556000,131.055878 
	C276.956696,131.735489 275.634460,133.042831 274.127045,133.967087 
	C266.633667,138.561630 258.994110,142.930939 251.644867,147.744217 
	C240.467072,155.064941 229.162384,162.259720 218.533691,170.327530 
	C211.334549,175.792099 205.126709,182.584763 198.614609,188.926285 
	C191.563751,195.792435 184.391876,202.568954 177.798767,209.860184 
	C171.873322,216.413101 166.362198,223.396225 161.206223,230.575882 
	C154.090347,240.484726 146.956146,250.449890 140.802795,260.960571 
	C134.892731,271.055634 129.988205,281.768738 125.083534,292.413757 
	C121.259911,300.712494 117.501312,309.133972 114.809479,317.839722 
	C110.710281,331.097076 107.294273,344.584747 104.090897,358.093811 
	C101.695831,368.194122 99.962692,378.459869 98.200615,388.697723 
	C97.450844,393.053955 97.096252,397.524200 97.052284,401.947479 
	C96.911514,416.112518 96.392952,430.313843 97.182953,444.436096 
	C97.873947,456.788513 99.828400,469.102600 101.799759,481.341003 
	C103.421272,491.407532 105.274582,501.516998 108.129990,511.284454 
	C111.835663,523.960266 116.332054,536.432739 121.064171,548.771790 
	C124.732033,558.335754 128.855545,567.782288 133.558289,576.876709 
	C138.674698,586.770996 144.147369,596.574646 150.452957,605.737732 
	C159.048553,618.228577 168.217209,630.373352 177.841965,642.089966 
	C183.843658,649.396057 190.864975,655.944214 197.916382,662.290649 
	C210.011597,673.176819 222.236526,683.952271 234.912201,694.145935 
	C241.190781,699.195068 248.549133,702.920105 255.500290,707.109192 
	C262.834839,711.529358 270.056061,716.213928 277.713989,719.999695 
	C285.484222,723.840942 293.732758,726.712524 301.760956,730.035034 
	C305.026611,731.386536 308.190186,733.023438 311.526978,734.157532 
	C324.202209,738.465515 336.740814,743.373779 349.691467,746.615723 
	C361.957611,749.686279 374.615356,751.521362 387.211365,752.860840 
	C402.425079,754.478577 417.822235,756.385681 433.017822,755.648804 
	C451.881866,754.734009 470.642426,751.396729 489.406433,748.806702 
	C502.913330,746.942322 515.746887,742.502747 528.715393,738.363159 
	C542.439148,733.982483 555.680298,728.761597 568.480957,722.239197 
	C575.323364,718.752747 582.374268,715.677063 589.241943,712.237793 
	C592.270386,710.721191 595.074036,708.756531 597.984741,707.003662 
	C608.480713,700.682434 618.987366,694.378662 629.473206,688.040710 
	C636.308472,683.909363 643.058228,679.630432 650.002441,675.693115 
	C650.914246,675.176147 653.253540,675.837646 654.083252,676.736450 
	C658.807800,681.854431 663.260742,687.222412 667.832764,692.482117 
	C674.293152,699.914307 680.827209,707.283142 687.237244,714.758484 
	C694.232727,722.916626 701.147644,731.144531 708.041199,739.389221 
	C709.791382,741.482483 712.310425,743.644470 712.573730,745.988647 
	C712.719727,747.288696 708.969604,749.082764 706.910583,750.563843 
	C699.255493,756.069885 691.606934,761.585999 683.891602,767.006958 
	C677.059753,771.807129 670.293518,776.727417 663.218811,781.147339 
	C656.678284,785.233398 649.767456,788.726807 643.018860,792.479614 
	C634.874939,797.008362 626.913452,801.913635 618.542053,805.973389 
	C606.216003,811.950928 593.743652,817.684387 581.058655,822.846252 
	C570.201111,827.264465 559.138550,831.406067 547.838257,834.451599 
	C533.625305,838.282227 519.128906,841.138062 504.658447,843.912048 
	C493.628265,846.026550 482.445312,847.340698 471.341125,849.080017 
	C470.619324,849.193054 469.990326,849.898987 469.659088,850.664551 
	C440.979095,851.000000 411.958221,851.000000 382.809570,850.664551 
	C382.009277,849.898926 381.379974,849.192993 380.657745,849.079773 
	C369.561829,847.340637 358.377533,846.066833 347.367157,843.904236 
	C332.301453,840.945068 317.292419,837.615723 302.402588,833.874146 
	C293.850555,831.725037 285.457367,828.770813 277.218811,825.592834 
	C267.728058,821.931824 258.300507,818.001770 249.182510,813.505127 
	C236.798447,807.397705 224.415619,801.168884 212.611328,794.034119 
	C197.079071,784.646057 181.967331,774.535400 166.971390,764.300842 
	C161.347488,760.462585 156.551376,755.410278 151.384781,750.903503 
	C143.546143,744.066040 135.435516,737.510254 127.952209,730.303345 
	C119.513229,722.176147 111.291237,713.763611 103.619835,704.915955 
	C95.770103,695.862610 88.238983,686.453308 81.404495,676.618835 
	C72.182350,663.348511 62.893520,649.991760 55.215645,635.815063 
	C45.933487,618.676208 37.638680,600.917847 30.173510,582.906616 
	C24.204060,568.504150 19.958286,553.371765 15.255473,538.466125 
	C12.826195,530.766479 10.528661,522.950806 9.124493,515.018799 
	C6.684861,501.237488 5.005045,487.322174 2.901047,473.479095 
	C2.813497,472.903046 1.657981,472.489319 1.000005,472.000000 
	C1.000000,441.645782 1.000000,411.291534 1.356984,380.769165 
	C2.475673,376.838257 3.339370,373.092743 3.980042,369.309479 
	C5.933133,357.776276 7.523577,346.173676 9.793983,334.704773 
	C11.423704,326.472260 13.752426,318.363525 16.065619,310.284424 
	C19.300274,298.987000 22.282413,287.572815 26.357496,276.573486 
	C30.148481,266.340942 35.028267,256.488892 39.795467,246.646942 
	C45.343151,235.193710 50.799191,223.648041 57.194443,212.666275 
	C64.252518,200.546326 72.030899,188.811020 80.065781,177.306442 
	C85.808823,169.083359 92.422913,161.460495 98.777321,153.675079 
	C103.953972,147.332642 108.905754,140.727371 114.692879,134.979263 
	C126.213234,123.536560 138.031311,112.370636 150.129288,101.540413 
	C158.341385,94.188881 167.048538,87.347794 175.887131,80.751190 
	C183.943298,74.738541 192.169769,68.832207 200.868515,63.831001 
	C213.829941,56.379040 227.432587,50.048450 240.466492,42.714825 
	C254.213211,34.980129 268.665527,29.159626 283.725189,24.649509 
	C292.052338,22.155668 300.209503,19.055901 308.602661,16.830215 
	C319.671875,13.894899 330.847595,11.304233 342.069977,9.019382 
	C353.362122,6.720328 364.772949,5.007143 376.110657,2.922179 
	C376.833801,2.789188 377.374451,1.663746 378.000000,0.999997 
	C409.687561,1.000000 441.375122,1.000000 473.531342,0.999995 
z"/>
<path fill="#B7B6B4" opacity="1.000000" stroke="none" 
	d="
M2049.000000,390.531342 
	C2027.197144,391.000000 2005.394409,391.000000 1983.000000,391.000000 
	C1983.000000,388.947479 1983.000000,387.179596 1983.000000,385.411743 
	C1983.000000,345.585541 1983.355835,305.754211 1982.786255,265.936157 
	C1982.612061,253.765244 1979.519165,241.880661 1970.201904,232.589096 
	C1963.207275,225.613708 1954.463501,223.458694 1945.252563,221.977493 
	C1935.526733,220.413498 1925.994629,222.358871 1917.102905,225.388977 
	C1911.169312,227.410995 1905.508789,231.987457 1901.228027,236.766098 
	C1889.938354,249.368378 1886.885010,264.831573 1886.902466,281.491425 
	C1887.066650,437.796661 1887.000000,594.102112 1887.000000,750.407471 
	C1887.000000,752.388306 1887.000000,754.369141 1887.000000,756.778809 
	C1878.149414,757.709656 1869.987915,755.675232 1862.148438,752.536865 
	C1851.266968,748.180542 1841.883667,741.710999 1834.520996,732.306213 
	C1826.538818,722.110352 1821.703003,710.773315 1821.066284,697.884216 
	C1820.428589,684.975891 1820.048584,672.041016 1820.043213,659.117554 
	C1819.977295,497.313141 1820.000000,335.508728 1820.000000,173.704330 
	C1820.000000,171.712616 1820.000000,169.720901 1820.000000,167.364838 
	C1841.211304,167.364838 1862.271606,167.364838 1883.806152,167.364838 
	C1883.806152,174.583374 1883.806152,181.969040 1883.806152,190.286987 
	C1885.832153,188.879776 1887.108887,188.002075 1888.376343,187.111343 
	C1894.592285,182.742401 1900.323364,177.296097 1907.128052,174.238434 
	C1918.747192,169.017288 1930.872437,165.148331 1943.857788,163.804977 
	C1960.465088,162.086945 1976.410645,163.619522 1992.186401,168.924759 
	C2008.260620,174.330444 2021.924927,183.286514 2032.041992,196.796295 
	C2039.648071,206.952850 2043.976929,218.902176 2047.038452,231.233932 
	C2047.255371,232.107483 2047.934326,232.866348 2048.699219,233.339264 
	C2049.000000,285.354218 2049.000000,337.708466 2049.000000,390.531342 
z"/>
<path fill="#000000" opacity="1.000000" stroke="none" 
	d="
M1.000005,472.468658 
	C1.657981,472.489319 2.813497,472.903046 2.901047,473.479095 
	C5.005045,487.322174 6.684861,501.237488 9.124493,515.018799 
	C10.528661,522.950806 12.826195,530.766479 15.255473,538.466125 
	C19.958286,553.371765 24.204060,568.504150 30.173510,582.906616 
	C37.638680,600.917847 45.933487,618.676208 55.215645,635.815063 
	C62.893520,649.991760 72.182350,663.348511 81.404495,676.618835 
	C88.238983,686.453308 95.770103,695.862610 103.619835,704.915955 
	C111.291237,713.763611 119.513229,722.176147 127.952209,730.303345 
	C135.435516,737.510254 143.546143,744.066040 151.384781,750.903503 
	C156.551376,755.410278 161.347488,760.462585 166.971390,764.300842 
	C181.967331,774.535400 197.079071,784.646057 212.611328,794.034119 
	C224.415619,801.168884 236.798447,807.397705 249.182510,813.505127 
	C258.300507,818.001770 267.728058,821.931824 277.218811,825.592834 
	C285.457367,828.770813 293.850555,831.725037 302.402588,833.874146 
	C317.292419,837.615723 332.301453,840.945068 347.367157,843.904236 
	C358.377533,846.066833 369.561829,847.340637 380.657745,849.079773 
	C381.379974,849.192993 382.009277,849.898926 382.340912,850.664551 
	C255.073120,851.000000 128.146240,851.000000 1.000000,851.000000 
	C1.000000,724.979187 1.000000,598.958252 1.000005,472.468658 
z"/>
<path fill="#000000" opacity="1.000000" stroke="none" 
	d="
M377.531342,0.999997 
	C377.374451,1.663746 376.833801,2.789188 376.110657,2.922179 
	C364.772949,5.007143 353.362122,6.720328 342.069977,9.019382 
	C330.847595,11.304233 319.671875,13.894899 308.602661,16.830215 
	C300.209503,19.055901 292.052338,22.155668 283.725189,24.649509 
	C268.665527,29.159626 254.213211,34.980129 240.466492,42.714825 
	C227.432587,50.048450 213.829941,56.379040 200.868515,63.831001 
	C192.169769,68.832207 183.943298,74.738541 175.887131,80.751190 
	C167.048538,87.347794 158.341385,94.188881 150.129288,101.540413 
	C138.031311,112.370636 126.213234,123.536560 114.692879,134.979263 
	C108.905754,140.727371 103.953972,147.332642 98.777321,153.675079 
	C92.422913,161.460495 85.808823,169.083359 80.065781,177.306442 
	C72.030899,188.811020 64.252518,200.546326 57.194443,212.666275 
	C50.799191,223.648041 45.343151,235.193710 39.795467,246.646942 
	C35.028267,256.488892 30.148481,266.340942 26.357496,276.573486 
	C22.282413,287.572815 19.300274,298.987000 16.065619,310.284424 
	C13.752426,318.363525 11.423704,326.472260 9.793983,334.704773 
	C7.523577,346.173676 5.933133,357.776276 3.980042,369.309479 
	C3.339370,373.092743 2.475673,376.838257 1.356984,380.300507 
	C1.000000,253.739777 1.000000,127.479568 1.000000,1.000000 
	C126.354141,1.000000 251.708420,1.000000 377.531342,0.999997 
z"/>
<path fill="#B7B6B4" opacity="1.000000" stroke="none" 
	d="
M360.342224,221.278809 
	C351.904968,225.010513 343.808624,228.537064 335.702881,232.041794 
	C321.686615,238.102081 309.598633,247.241180 297.487335,256.276428 
	C293.290527,259.407349 289.715057,263.397247 285.990540,267.129272 
	C279.828552,273.303772 273.385406,279.258728 267.783325,285.914398 
	C261.798615,293.024628 256.307709,300.615723 251.230179,308.406799 
	C245.618790,317.016998 240.161438,325.817566 235.639709,335.027496 
	C228.359512,349.855957 223.964645,365.771881 220.035065,381.783112 
	C219.893585,382.359558 220.129898,383.028717 220.212708,383.889099 
	C299.330414,383.889099 378.292480,383.889099 457.627136,383.889099 
	C457.627136,411.863892 457.627136,439.591125 457.627136,467.780029 
	C378.730896,467.780029 299.665619,467.780029 219.812531,467.780029 
	C220.753494,472.200287 221.245026,476.149719 222.450684,479.867554 
	C226.169662,491.335754 229.406219,503.050293 234.273804,514.029114 
	C238.558167,523.692444 244.693405,532.549988 250.193497,541.653259 
	C252.859299,546.065430 256.076080,550.141907 258.810608,554.515869 
	C265.815826,565.720947 275.092010,574.916138 284.623932,583.869385 
	C290.715942,589.591553 296.714264,595.502625 303.372253,600.507263 
	C309.703491,605.266235 316.723267,609.159790 323.647949,613.065796 
	C332.042664,617.800903 340.332367,622.978394 349.255554,626.455200 
	C360.335327,630.772278 371.978821,633.678650 383.447388,636.954285 
	C404.576508,642.989136 426.301941,644.297302 447.991638,642.722961 
	C461.015320,641.777649 474.000946,638.725647 486.708954,635.469971 
	C498.824158,632.366211 510.765991,628.291687 522.382019,623.640076 
	C529.731201,620.697083 536.429321,616.055908 543.263733,611.919128 
	C550.696960,607.419861 557.967651,602.650269 565.273438,597.943054 
	C568.659241,595.761597 571.866089,593.281921 575.362000,591.305176 
	C576.314636,590.766479 578.580200,591.046814 579.297363,591.824097 
	C587.652100,600.878845 595.793274,610.130005 604.059021,619.267639 
	C609.238464,624.993469 614.553772,630.596191 619.768372,636.290527 
	C622.787842,639.587769 625.920105,642.810791 628.626770,646.353577 
	C630.057434,648.226196 630.998352,650.084412 627.675781,652.280762 
	C619.266663,657.839478 611.560364,664.454163 603.214111,670.117615 
	C596.285767,674.818848 589.023438,679.107239 581.593506,682.971802 
	C569.945801,689.030273 557.941772,694.400940 546.255615,700.388794 
	C533.548218,706.899963 519.801147,710.464905 506.203217,714.073608 
	C493.535217,717.435547 480.404938,719.561646 467.342407,720.801514 
	C451.404480,722.314331 435.301544,723.178284 419.313751,722.737122 
	C406.159058,722.374146 393.020874,720.000122 379.962067,717.961914 
	C366.370789,715.840454 353.037170,712.718201 339.910858,708.244934 
	C325.352844,703.283630 311.425110,697.233398 297.616638,690.509949 
	C284.913269,684.324646 272.983154,677.044250 261.522919,668.981567 
	C253.021027,663.000061 244.949799,656.338989 237.126938,649.478638 
	C229.155914,642.488342 221.551041,635.053528 214.112167,627.492371 
	C208.695999,621.987183 203.338974,616.304626 198.795471,610.087341 
	C191.538925,600.157532 184.467468,590.017395 178.267670,579.411011 
	C171.833313,568.403381 166.055725,556.946228 160.862289,545.297241 
	C155.685455,533.685425 150.334625,521.899475 147.326309,509.634094 
	C143.241333,492.979004 137.808060,476.505310 137.852234,458.919373 
	C137.890762,443.567291 135.558670,428.159424 136.284409,412.871643 
	C137.163422,394.354858 138.209763,375.767487 143.456329,357.613617 
	C146.951157,345.520996 150.043121,333.406799 154.480164,321.544434 
	C159.184341,308.967834 163.856522,296.519775 170.977753,285.095703 
	C176.789627,275.772217 182.758667,266.540649 188.336563,257.078766 
	C195.475037,244.969711 204.573547,234.437744 214.218094,224.373444 
	C223.102020,215.102890 231.828613,205.543549 241.662582,197.358673 
	C252.357193,188.457535 263.674438,179.979172 275.755341,173.146774 
	C293.006714,163.390167 310.987274,154.826248 329.077728,146.689758 
	C338.416046,142.489700 348.496582,139.513199 358.540314,137.408463 
	C373.490692,134.275482 388.629791,131.458466 403.827393,130.243484 
	C421.333618,128.843933 439.045715,128.345581 456.565094,129.317612 
	C470.442139,130.087570 484.114502,134.027878 497.966736,135.902985 
	C513.373901,137.988586 527.532104,144.032257 541.931763,149.157120 
	C551.582336,152.591766 560.716675,157.608231 569.821411,162.410919 
	C580.628723,168.111710 591.413574,173.937775 601.717407,180.482178 
	C608.923035,185.058762 615.234680,191.025604 622.092590,196.175842 
	C624.597229,198.056808 627.526062,199.372757 631.248291,201.514267 
	C625.671204,207.362259 620.661743,212.429565 615.871399,217.696152 
	C611.973633,221.981445 608.374512,226.536865 604.578674,230.916748 
	C597.753906,238.791565 590.881897,246.625412 584.025085,254.472412 
	C583.696777,254.848129 583.318542,255.179672 582.973999,255.541763 
	C576.014832,262.855774 576.288513,262.439117 567.769165,255.697433 
	C560.710693,250.111725 552.899841,245.417099 545.153442,240.776657 
	C537.109009,235.957733 528.984314,231.142578 520.462585,227.279022 
	C504.825500,220.189590 488.403503,215.001572 471.500397,212.222946 
	C457.303192,209.889145 442.826874,208.458984 428.448334,208.226562 
	C411.115479,207.946426 394.102722,211.511429 377.410126,216.242523 
	C371.826111,217.825180 366.255585,219.455353 360.342224,221.278809 
z"/>
<path fill="#B7B6B4" opacity="1.000000" stroke="none" 
	d="
M1035.000000,723.000000 
	C1035.000000,733.138367 1035.000000,742.776733 1035.000000,752.706421 
	C959.646423,752.706421 884.591797,752.706421 809.268433,752.706421 
	C809.268433,655.931152 809.268433,559.211975 809.268433,462.246277 
	C882.448730,462.246277 955.503418,462.246277 1028.779053,462.246277 
	C1028.779053,480.385223 1028.779053,498.327759 1028.779053,516.743103 
	C978.787964,516.743103 928.729126,516.743103 878.335815,516.743103 
	C878.335815,537.271301 878.335815,557.331848 878.335815,577.866943 
	C922.669556,577.866943 967.062500,577.866943 1011.726562,577.866943 
	C1011.726562,596.398376 1011.726562,614.458374 1011.726562,632.815430 
	C967.322266,632.815430 923.048523,632.815430 878.387573,632.815430 
	C878.387573,654.165649 878.387573,675.227112 878.387573,696.761963 
	C930.231201,696.761963 982.289795,696.761963 1035.000000,696.761963 
	C1035.000000,705.645325 1035.000000,714.072693 1035.000000,723.000000 
z"/>
<path fill="#B7B6B4" opacity="1.000000" stroke="none" 
	d="
M851.762146,123.733475 
	C860.067810,118.988846 868.133789,114.537895 876.160034,110.016541 
	C888.314758,103.169548 901.942566,100.858498 915.193970,97.482468 
	C920.694702,96.081055 926.463379,95.287773 932.138489,95.107437 
	C943.476257,94.747147 954.901489,94.233856 966.162476,95.230751 
	C976.109314,96.111305 985.846985,99.159111 995.740601,100.885872 
	C1008.042419,103.032951 1019.212280,108.243408 1029.892578,114.157089 
	C1044.983154,122.512787 1058.672119,132.897385 1069.545776,147.397995 
	C1054.681030,161.140564 1040.021973,174.692963 1024.800659,188.765182 
	C1004.109253,164.837402 978.186096,152.745819 946.862305,154.144852 
	C925.147278,155.114731 904.559448,161.710876 888.940674,176.974991 
	C846.109131,218.833847 857.653931,280.675995 882.616150,307.844177 
	C901.698547,328.612915 926.246765,337.666840 954.479248,337.040253 
	C983.096436,336.405151 1005.660156,323.559570 1024.763916,302.440338 
	C1028.773193,306.046265 1032.572632,309.451904 1036.359375,312.871674 
	C1046.435425,321.971069 1056.487061,331.097870 1066.594727,340.162048 
	C1068.656006,342.010590 1070.218628,343.542267 1067.409058,346.159546 
	C1059.022705,353.971619 1051.622925,363.200439 1042.239014,369.491028 
	C1031.185791,376.900787 1018.934570,383.249695 1006.331116,387.430603 
	C991.792786,392.253296 976.575989,395.021210 960.998413,396.308685 
	C938.360107,398.179657 916.701294,394.767700 895.228149,388.583405 
	C882.351624,384.874969 870.547241,379.013123 859.005798,371.988129 
	C847.612305,365.053101 837.749146,356.712494 828.779663,347.160675 
	C820.494141,338.337097 813.550842,328.583282 807.740601,317.781647 
	C800.358826,304.058563 795.478210,289.570801 792.516235,274.543488 
	C790.714722,265.403442 791.172668,255.772400 791.052673,246.356354 
	C790.817993,227.955566 792.690491,210.031723 799.439941,192.479965 
	C803.759277,181.247711 809.175049,170.961182 815.484558,160.844574 
	C822.985291,148.818100 833.156067,139.340393 843.153198,129.651764 
	C845.530945,127.347397 848.699768,125.859230 851.762146,123.733475 
z"/>
<path fill="#B7B6B4" opacity="1.000000" stroke="none" 
	d="
M1683.090088,526.994751 
	C1687.043213,527.666138 1690.611816,528.093567 1694.034668,529.045898 
	C1703.970703,531.810486 1713.513794,535.302612 1722.906738,539.911804 
	C1736.383789,546.525146 1746.682373,556.460327 1756.240112,567.265869 
	C1761.171631,572.840942 1764.299927,580.079041 1767.869751,586.764954 
	C1769.976807,590.710876 1771.749512,594.934204 1772.969360,599.232300 
	C1774.949097,606.208435 1777.001099,613.273132 1777.832275,620.438538 
	C1778.858032,629.280457 1778.809204,638.261536 1778.935547,647.186584 
	C1778.993286,651.267395 1778.359131,655.358093 1778.006958,659.849609 
	C1722.418823,659.849609 1667.003418,659.849609 1611.269775,659.849609 
	C1610.030396,667.095764 1614.347290,672.006470 1617.605225,676.933655 
	C1627.691040,692.186523 1642.887573,699.137878 1660.368774,702.013794 
	C1674.055054,704.265320 1687.394287,703.295593 1700.426025,698.249146 
	C1709.723389,694.648926 1718.536377,690.320740 1725.468018,682.967041 
	C1727.730591,680.566895 1729.351440,680.507507 1731.522583,682.976929 
	C1737.786865,690.101685 1744.148071,697.142395 1750.534302,704.158569 
	C1754.689697,708.723877 1759.081055,713.083496 1763.041382,717.808044 
	C1763.660889,718.547058 1763.050659,721.196533 1762.154053,722.194824 
	C1748.433594,737.472229 1731.159668,746.690613 1711.495972,752.048279 
	C1694.303223,756.732788 1676.775635,758.035217 1659.203979,756.772461 
	C1648.598633,756.010315 1638.142944,753.064087 1627.640747,750.994995 
	C1615.588501,748.620422 1604.942261,742.835754 1594.299561,737.052979 
	C1583.810059,731.353333 1575.362915,722.955872 1567.561890,714.366150 
	C1561.427124,707.611023 1557.237915,698.870972 1553.113403,690.552063 
	C1543.625488,671.415344 1541.705933,650.748840 1543.197021,629.835876 
	C1543.812500,621.201477 1546.509766,612.701599 1548.422729,604.177063 
	C1550.947266,592.927185 1557.412720,583.658508 1563.263794,573.968689 
	C1568.765503,564.857361 1576.763794,558.248474 1583.957886,550.870300 
	C1587.587402,547.147827 1592.729370,544.813721 1597.376099,542.185547 
	C1611.144531,534.397827 1625.835815,529.085022 1641.553589,527.068970 
	C1649.850464,526.004700 1658.234131,525.276672 1666.590698,525.140686 
	C1671.928711,525.053711 1677.288696,526.327087 1683.090088,526.994751 
M1658.500000,620.000000 
	C1677.582520,620.000000 1696.665039,620.000000 1715.834839,620.000000 
	C1709.969482,591.431030 1688.163086,572.812805 1651.789673,577.225159 
	C1634.213745,579.357178 1612.846191,594.840637 1610.130859,620.000000 
	C1625.949585,620.000000 1641.724854,620.000000 1658.500000,620.000000 
z"/>
<path fill="#B7B6B4" opacity="1.000000" stroke="none" 
	d="
M1338.249512,394.999512 
	C1325.172852,392.652496 1312.252808,391.346558 1300.073730,387.619690 
	C1290.842163,384.794800 1282.446411,379.076813 1273.894653,374.262787 
	C1269.841064,371.980927 1266.472046,368.505066 1262.478271,366.090790 
	C1253.296021,360.540344 1247.283203,351.791382 1241.567261,343.437775 
	C1233.964355,332.326782 1228.414307,319.649078 1226.178589,306.186676 
	C1224.330688,295.059570 1222.702759,283.603149 1223.365112,272.434235 
	C1224.028809,261.242340 1227.027954,250.044556 1230.189209,239.194809 
	C1232.378174,231.682236 1235.687134,224.144318 1240.097168,217.716492 
	C1246.086792,208.986008 1252.917603,200.565964 1260.646606,193.363907 
	C1269.993164,184.654694 1281.056763,177.788330 1293.025879,173.186584 
	C1302.327271,169.610519 1312.124268,166.872147 1321.946411,165.228394 
	C1331.960571,163.552536 1342.277344,163.088593 1352.456177,163.141251 
	C1366.360107,163.213211 1379.795654,166.417999 1393.003540,170.866592 
	C1404.712280,174.810257 1415.845459,179.662994 1425.238892,187.801987 
	C1432.707275,194.273148 1440.943726,200.255341 1446.914429,207.948410 
	C1453.150757,215.983673 1458.142334,225.408066 1461.731445,234.956818 
	C1465.388672,244.686737 1467.075317,255.236298 1468.909058,265.554169 
	C1471.684326,281.169128 1468.997803,296.367035 1465.401489,311.703827 
	C1462.311279,324.882721 1456.836670,336.535309 1448.500244,346.840881 
	C1442.126343,354.720459 1435.625610,362.784149 1427.878540,369.190521 
	C1419.049316,376.491791 1408.743530,382.158813 1397.783691,385.856750 
	C1385.708740,389.930908 1373.469971,393.706787 1360.506104,394.029633 
	C1353.242188,394.210541 1345.984985,394.667389 1338.249512,394.999512 
M1309.443848,233.034988 
	C1302.317383,238.390900 1298.051514,245.965439 1295.137695,253.955368 
	C1290.654785,266.247650 1290.329346,279.086182 1291.915771,292.135590 
	C1293.071411,301.642059 1296.899048,309.935608 1302.176147,317.381195 
	C1308.543335,326.364807 1317.150757,333.110870 1327.934692,336.437653 
	C1339.466675,339.995209 1350.862793,340.969482 1362.856079,337.289001 
	C1372.392700,334.362427 1380.210815,329.520905 1386.926147,322.520020 
	C1390.550537,318.741608 1393.025757,314.276093 1395.518921,309.570557 
	C1400.153687,300.823212 1402.331177,291.723389 1402.922852,282.153595 
	C1403.682007,269.875885 1400.336548,258.543335 1395.082886,247.381073 
	C1390.575562,237.804459 1383.557617,230.655518 1374.969116,225.875824 
	C1363.750244,219.632385 1351.321045,215.964890 1338.001709,218.994034 
	C1327.607178,221.358017 1317.777954,224.841751 1309.443848,233.034988 
z"/>
<path fill="#B7B6B4" opacity="1.000000" stroke="none" 
	d="
M1228.218262,661.736328 
	C1235.221313,671.066711 1241.966675,680.125183 1248.700317,689.192200 
	C1255.416138,698.235229 1262.074097,707.321716 1268.841553,716.325989 
	C1277.200806,727.448059 1285.656494,738.497742 1294.032227,749.607544 
	C1294.568970,750.319641 1294.775879,751.280334 1295.395874,752.733948 
	C1293.179443,752.837891 1291.450439,752.987976 1289.721558,752.989380 
	C1269.058228,753.005737 1248.387207,752.687195 1227.736084,753.189026 
	C1221.473267,753.341248 1217.907593,750.782043 1214.699341,746.227112 
	C1208.853638,737.927612 1202.818726,729.761047 1197.004272,721.440063 
	C1190.477173,712.098999 1184.144897,702.621948 1177.638794,693.266052 
	C1176.201904,691.199707 1174.390991,689.393494 1172.239380,686.864685 
	C1168.129761,692.485840 1164.227539,697.875549 1160.270630,703.224915 
	C1152.199585,714.135803 1144.068604,725.002502 1136.027710,735.935425 
	C1133.259644,739.699097 1130.863525,743.746155 1127.972168,747.406677 
	C1125.192261,750.926025 1122.096191,753.276733 1116.776611,753.176025 
	C1094.646118,752.757324 1072.503052,753.000000 1049.343750,753.000000 
	C1078.552490,714.821045 1107.249023,677.311646 1135.606323,640.245544 
	C1108.055786,603.504944 1080.604492,566.896851 1052.399658,529.283813 
	C1055.658813,529.133423 1057.104614,529.009399 1058.550293,529.008606 
	C1080.546753,528.996277 1102.543335,529.007629 1124.539795,528.988464 
	C1126.792725,528.986450 1128.140381,529.292175 1129.747437,531.698669 
	C1134.430420,538.712280 1140.146240,545.025696 1145.208618,551.799377 
	C1151.358276,560.027832 1157.306030,568.409119 1163.240479,576.795532 
	C1166.789062,581.810364 1170.144897,586.961609 1174.004272,592.668030 
	C1177.851440,587.520386 1181.393188,582.705322 1185.018799,577.954224 
	C1187.989990,574.060669 1191.160278,570.316528 1194.062622,566.373779 
	C1197.792725,561.306580 1201.207153,556.004028 1205.003540,550.989014 
	C1210.341797,543.937256 1215.865356,537.023438 1221.434204,530.151611 
	C1222.025146,529.422424 1223.448486,529.049927 1224.486816,529.048096 
	C1246.981445,529.008728 1269.476318,529.044128 1291.971069,529.086060 
	C1292.230103,529.086548 1292.488525,529.362244 1293.067383,529.691650 
	C1265.488159,565.978821 1237.952271,602.208923 1210.417480,638.437622 
	C1215.380371,645.532593 1220.394531,652.759583 1225.505127,659.917786 
	C1226.025269,660.646362 1227.124756,660.961304 1228.218262,661.736328 
z"/>
<path fill="#B7B6B4" opacity="1.000000" stroke="none" 
	d="
M1403.991333,584.999451 
	C1391.766724,589.483948 1383.217407,597.432007 1376.829590,608.341858 
	C1369.058838,621.614014 1368.678101,635.609558 1369.669067,650.415283 
	C1370.274658,659.460876 1372.921265,667.243164 1377.340942,674.701050 
	C1383.126099,684.463379 1390.973755,691.933289 1401.674316,696.364258 
	C1410.058594,699.835999 1418.599609,702.605347 1427.692017,701.918030 
	C1446.768188,700.476074 1462.190674,692.479126 1472.105957,675.491150 
	C1475.171997,670.238281 1475.905273,670.041809 1481.261475,673.022156 
	C1491.699097,678.829956 1502.219116,684.489624 1512.662109,690.288025 
	C1517.069458,692.735168 1521.408325,695.314209 1525.672607,698.000977 
	C1526.320557,698.409363 1526.946655,700.037048 1526.645142,700.583069 
	C1523.840698,705.662720 1521.167725,710.871948 1517.787964,715.561646 
	C1514.233276,720.493835 1510.390991,725.391785 1505.897583,729.443298 
	C1489.831543,743.929077 1470.571411,751.500916 1449.395020,755.111023 
	C1428.299927,758.707153 1407.495239,757.546997 1387.086670,751.772522 
	C1377.870117,749.164612 1369.152466,744.704895 1360.333252,740.803223 
	C1347.812622,735.264099 1337.889404,726.408752 1328.678467,716.383972 
	C1319.932007,706.864685 1313.433716,695.998657 1308.900269,684.213745 
	C1302.694946,668.082947 1299.539062,651.092407 1301.148438,633.716370 
	C1301.951904,625.042114 1304.482544,616.540588 1305.921875,607.909180 
	C1307.690918,597.301819 1313.121704,588.249939 1318.151855,579.118774 
	C1320.835938,574.246582 1324.894165,570.058228 1328.697144,565.894592 
	C1333.156738,561.012207 1337.769165,556.208679 1342.775269,551.906128 
	C1346.663940,548.564026 1351.049927,545.649719 1355.585938,543.245422 
	C1363.120483,539.251709 1370.635132,534.672485 1378.736572,532.428162 
	C1390.093140,529.282288 1401.913818,527.409180 1413.660522,526.200439 
	C1423.244507,525.214111 1433.089111,525.240845 1442.672852,526.228149 
	C1451.124023,527.098877 1459.288696,530.517700 1467.735107,531.727844 
	C1478.308228,533.242798 1486.843506,538.975464 1495.317383,544.368774 
	C1502.524536,548.955933 1509.168701,554.991516 1514.651611,561.563049 
	C1520.006592,567.981262 1523.575806,575.889404 1528.162231,583.532104 
	C1510.047241,593.356323 1492.940674,602.633667 1475.721436,611.972168 
	C1459.032959,584.365051 1435.869995,573.638611 1403.991333,584.999451 
z"/>
<path fill="#B7B6B4" opacity="1.000000" stroke="none" 
	d="
M1167.063721,235.991333 
	C1155.375000,246.276016 1149.359497,259.110413 1148.004395,274.207428 
	C1147.593262,278.789001 1147.055908,283.383209 1147.044067,287.972839 
	C1146.960938,320.290558 1147.000000,352.608612 1147.000000,384.926544 
	C1147.000000,386.738831 1147.000000,388.551117 1147.000000,390.680847 
	C1125.033325,390.680847 1103.311890,390.680847 1081.294434,390.680847 
	C1081.294434,316.333038 1081.294434,241.963150 1081.294434,167.296417 
	C1102.346313,167.296417 1123.401123,167.296417 1144.847168,167.296417 
	C1144.847168,175.090408 1144.847168,182.848877 1144.847168,192.153015 
	C1166.045776,169.896805 1192.216431,163.885361 1220.665527,162.769531 
	C1220.665527,183.589142 1220.665527,203.981003 1220.665527,225.000000 
	C1212.158691,225.000000 1203.450562,224.143570 1195.004028,225.261612 
	C1187.797485,226.215530 1180.831787,229.271744 1173.885620,231.751129 
	C1171.536743,232.589508 1169.573608,234.508591 1167.063721,235.991333 
z"/>
<path fill="#B7B6B4" opacity="1.000000" stroke="none" 
	d="
M1643.683594,263.626862 
	C1643.187866,267.234772 1642.682251,270.841339 1642.205811,274.451782 
	C1642.121826,275.088226 1641.954956,275.820831 1642.171753,276.373749 
	C1645.270508,284.282715 1648.481567,292.147858 1651.558960,300.064972 
	C1655.437744,310.043884 1659.175781,320.077576 1663.066284,330.051849 
	C1664.360229,333.369568 1666.002075,336.549866 1667.372314,339.839905 
	C1671.384521,349.474548 1675.415283,359.102875 1679.278687,368.797455 
	C1680.704956,372.376190 1681.684814,376.132751 1682.878540,379.840332 
	C1697.930420,379.840332 1712.565552,379.840332 1727.840942,379.840332 
	C1731.178101,370.228424 1734.488403,360.346619 1738.049683,350.556152 
	C1740.524048,343.753143 1743.441284,337.112335 1745.989990,330.334839 
	C1751.941040,314.509491 1757.969116,298.709229 1763.612061,282.773499 
	C1767.101807,272.918823 1769.617554,262.717438 1773.153809,252.881424 
	C1777.960449,239.512360 1783.408081,226.375168 1788.417603,213.077087 
	C1791.316162,205.383102 1794.067871,197.622055 1796.494629,189.770370 
	C1797.103149,187.801819 1796.192993,185.368790 1796.002563,183.147369 
	C1795.657227,179.118484 1797.488892,175.488495 1800.856934,174.366074 
	C1804.135864,173.273407 1808.253784,172.921341 1811.282959,176.638336 
	C1814.076172,180.065903 1814.870850,183.434296 1813.148682,187.483109 
	C1810.076538,194.705475 1806.833618,201.866333 1804.068359,209.206009 
	C1797.073853,227.772537 1790.170654,246.376053 1783.504028,265.062256 
	C1780.314941,274.000946 1777.943726,283.229675 1774.826904,292.196594 
	C1772.724121,298.246460 1769.727051,303.982483 1767.553223,310.011414 
	C1763.783691,320.465454 1760.390503,331.054657 1756.732056,341.549652 
	C1755.679443,344.569122 1754.112183,347.407593 1753.030273,350.418640 
	C1748.287109,363.620178 1743.715820,376.884583 1738.825928,390.030792 
	C1738.335205,391.350189 1736.120117,392.860901 1734.692627,392.873840 
	C1714.373291,393.058289 1694.052002,392.999603 1673.608521,392.999603 
	C1660.915894,361.284363 1648.261841,329.665375 1635.607666,298.046387 
	C1635.195190,298.131470 1634.782715,298.216583 1634.370239,298.301697 
	C1621.318359,329.821167 1608.266602,361.340637 1595.157837,392.997742 
	C1574.579712,392.997742 1554.449951,393.078247 1534.324219,392.829407 
	C1532.873291,392.811462 1530.762451,390.661469 1530.131348,389.044861 
	C1526.551514,379.875916 1523.388062,370.545654 1519.969849,361.312225 
	C1515.831055,350.132660 1511.565186,339.000183 1507.381226,327.837219 
	C1503.986084,318.779236 1500.497437,309.753204 1497.289795,300.628754 
	C1492.750488,287.716125 1488.602295,274.664673 1483.978271,261.783447 
	C1477.280273,243.125183 1470.278198,224.576355 1463.476440,205.955032 
	C1462.261353,202.628494 1461.608643,199.087494 1460.278198,195.815506 
	C1459.429199,193.727905 1458.007568,191.778748 1456.496094,190.074982 
	C1453.507202,186.705704 1453.120483,183.056686 1454.982178,179.181641 
	C1456.986084,175.010376 1461.992310,172.566559 1466.177856,174.217682 
	C1469.798462,175.645950 1473.680176,177.767517 1472.948486,182.711166 
	C1471.394409,193.209625 1477.247437,201.655487 1480.440430,210.818558 
	C1483.626343,219.961639 1487.238525,228.955200 1490.548584,238.056213 
	C1496.222168,253.655136 1501.834961,269.276276 1507.419312,284.907440 
	C1512.984619,300.485382 1518.448975,316.099518 1524.025391,331.673523 
	C1527.018799,340.034027 1530.189209,348.331055 1533.214722,356.680237 
	C1535.510620,363.015747 1537.962891,369.313507 1539.832520,375.776489 
	C1540.752075,378.954254 1542.270508,380.048981 1545.366211,380.030121 
	C1557.529175,379.955902 1569.695190,380.116211 1581.853516,379.867310 
	C1583.571899,379.832123 1586.128418,378.418152 1586.802368,376.954315 
	C1589.820923,370.397675 1592.232666,363.564880 1594.987061,356.882751 
	C1598.916260,347.350922 1603.027344,337.893829 1606.924927,328.349304 
	C1611.356934,317.496063 1615.638306,306.581238 1619.987427,295.694061 
	C1622.309937,289.879913 1624.736938,284.103912 1626.880371,278.224487 
	C1627.318848,277.021759 1627.045654,275.285522 1626.510376,274.051239 
	C1624.610962,269.672363 1626.093750,262.325317 1629.531006,260.183960 
	C1633.914673,257.452942 1639.550049,258.881927 1643.455322,263.674683 
	C1643.753540,263.710480 1643.683594,263.626862 1643.683594,263.626862 
M1807.052368,184.642380 
	C1806.753418,183.317184 1806.427124,180.845703 1806.159790,180.852097 
	C1804.372314,180.894791 1802.597534,181.465546 1799.857178,182.080795 
	C1802.550659,184.759399 1802.861206,189.375870 1807.052368,184.642380 
M1466.987305,183.506836 
	C1464.708496,178.204041 1462.447876,180.785599 1460.055664,183.603409 
	C1461.380127,184.814865 1462.671753,185.996368 1464.140503,187.339859 
	C1465.228394,186.139282 1466.088135,185.190475 1466.987305,183.506836 
M1633.015259,270.519989 
	C1634.352417,270.279572 1635.881348,270.337219 1636.937012,269.658722 
	C1637.388062,269.368805 1637.248535,267.187042 1636.648804,266.520081 
	C1636.094849,265.903961 1634.165771,265.662628 1633.557495,266.149567 
	C1632.522583,266.977966 1629.770874,267.973083 1633.015259,270.519989 
z"/>
<path fill="#B7B6B4" opacity="1.000000" stroke="none" 
	d="
M521.000000,467.000000 
	C509.532104,467.000000 498.564209,467.000000 487.299255,467.000000 
	C487.299255,438.663788 487.299255,410.613922 487.299255,382.000000 
	C489.085724,382.000000 490.856873,382.000000 492.627991,382.000000 
	C521.110901,382.000000 549.595154,381.838226 578.075928,382.084137 
	C588.633118,382.175323 597.873169,385.485535 606.004395,393.182129 
	C618.663269,405.164276 622.381653,419.424835 618.754150,435.627319 
	C617.005554,443.437897 612.645874,450.377228 606.484924,456.185883 
	C598.045837,464.142395 588.397888,467.307587 576.964966,467.093201 
	C558.482605,466.746643 539.988892,467.000000 521.000000,467.000000 
z"/>
<path fill="#B7B6B4" opacity="1.000000" stroke="none" 
	d="
M1643.794678,263.746155 
	C1642.965332,261.054657 1642.288208,258.246155 1641.183716,255.617188 
	C1638.885864,250.147415 1636.361816,244.772766 1633.360840,238.089935 
	C1630.866943,244.301910 1628.955566,249.616776 1626.628662,254.743057 
	C1621.751709,265.488068 1616.516968,276.071411 1611.686279,286.836578 
	C1605.970581,299.574310 1600.604858,312.468750 1594.942505,325.230957 
	C1589.118530,338.357483 1583.090210,351.393402 1577.250244,364.513000 
	C1576.739990,365.659271 1576.964722,367.132751 1576.800293,368.995728 
	C1567.245605,368.995728 1557.598389,369.423676 1548.052246,368.632568 
	C1546.155884,368.475372 1544.121338,363.839874 1543.050537,360.937408 
	C1538.526123,348.672089 1534.459839,336.238464 1530.001709,323.947815 
	C1525.098389,310.430267 1519.803345,297.054047 1514.957520,283.516602 
	C1511.706909,274.435883 1508.994873,265.163635 1505.929565,256.014679 
	C1504.759155,252.521454 1503.266724,249.136673 1501.936768,245.696350 
	C1498.107788,235.791672 1494.257935,225.894913 1490.470825,215.974243 
	C1486.800659,206.359528 1483.109131,196.751221 1479.602295,187.076569 
	C1477.840088,182.215637 1479.377197,177.439850 1482.894775,175.560776 
	C1488.124756,172.766907 1492.107056,173.598587 1495.837891,178.368347 
	C1496.401733,179.089249 1496.974243,180.095749 1496.941406,180.946960 
	C1496.491943,192.593796 1501.801880,202.650101 1505.544312,213.175934 
	C1509.318970,223.792358 1512.507690,234.615784 1516.164185,245.276123 
	C1518.258545,251.381561 1520.872192,257.306763 1523.077881,263.376373 
	C1528.091797,277.174255 1532.967285,291.022461 1537.958252,304.828766 
	C1542.069458,316.201752 1546.329468,327.521332 1550.384277,338.914124 
	C1551.516357,342.095093 1552.121948,345.460876 1553.027832,348.725555 
	C1554.240723,353.096588 1556.416870,356.113800 1561.696045,355.044189 
	C1563.132568,354.753113 1564.678101,355.000000 1566.786865,355.000000 
	C1574.155396,338.413544 1581.613647,321.716919 1588.992676,304.985413 
	C1594.389893,292.747467 1599.603149,280.428070 1605.043823,268.209717 
	C1611.528076,253.647354 1618.250366,239.190384 1624.643677,224.588882 
	C1625.525879,222.573608 1625.187744,219.992859 1625.267822,217.668808 
	C1625.318726,216.190994 1624.749878,214.621399 1625.076660,213.239059 
	C1625.659912,210.772598 1626.055664,207.081909 1627.695190,206.277161 
	C1631.806152,204.259354 1637.090454,203.626480 1640.422607,207.365707 
	C1642.321655,209.496704 1643.260132,214.051926 1642.338379,216.724747 
	C1641.227539,219.945236 1641.649536,222.001282 1642.886353,224.811874 
	C1647.113647,234.417480 1650.961670,244.189194 1655.053467,253.855545 
	C1656.370605,256.967102 1658.063354,259.917480 1659.465820,262.995514 
	C1666.002563,277.342163 1672.598267,291.663300 1678.975830,306.080780 
	C1683.906250,317.227234 1688.559326,328.496704 1693.304321,339.724731 
	C1694.734619,343.109161 1695.973389,346.576202 1697.458130,349.935486 
	C1698.889648,353.174194 1700.764526,355.784363 1705.070557,355.060822 
	C1707.164795,354.708923 1709.367065,355.000000 1710.909424,355.000000 
	C1714.033203,347.791931 1717.175171,341.118469 1719.828369,334.256073 
	C1722.475952,327.408661 1724.600464,320.360321 1727.013184,313.420563 
	C1731.326660,301.013763 1735.464233,288.539581 1740.085083,276.247681 
	C1744.726074,263.901947 1750.057739,251.816620 1754.741699,239.486115 
	C1760.864014,223.368744 1766.681396,207.134872 1772.507690,190.907211 
	C1772.944092,189.691727 1772.438232,188.121155 1772.307373,186.721558 
	C1771.525391,178.358200 1772.812500,173.207809 1781.248413,173.896194 
	C1788.603760,174.496368 1792.338257,180.614731 1789.181152,187.542740 
	C1786.263428,193.945694 1783.569824,200.458008 1780.988159,207.005234 
	C1776.190918,219.171387 1771.550293,231.399246 1766.838501,243.599045 
	C1763.644531,251.868668 1760.331665,260.094269 1757.264648,268.410614 
	C1751.910522,282.929474 1746.594849,297.464539 1741.474731,312.067047 
	C1738.063477,321.796387 1735.079224,331.674713 1731.780029,341.444519 
	C1730.601440,344.934662 1729.026611,348.289368 1727.688843,351.727692 
	C1725.524048,357.291626 1723.405884,362.873749 1721.128296,368.812622 
	C1711.598633,368.812622 1701.465576,368.812622 1691.040771,368.812622 
	C1685.634521,356.057434 1680.374756,343.177582 1674.723389,330.471985 
	C1670.604126,321.210907 1665.754028,312.275269 1661.623169,303.018951 
	C1657.487671,293.752075 1653.927734,284.230042 1649.936890,274.896179 
	C1648.343262,271.168915 1646.271240,267.646179 1644.050293,263.828613 
	C1643.683594,263.626862 1643.753540,263.710480 1643.794678,263.746155 
M1630.533203,212.974747 
	C1631.171753,214.242523 1631.822021,216.572159 1632.446655,216.565292 
	C1633.916382,216.549149 1635.373779,215.417572 1636.833862,214.738342 
	C1635.877930,212.838531 1635.163086,211.418091 1634.204468,209.513062 
	C1632.968140,210.587646 1631.958618,211.465149 1630.533203,212.974747 
M1777.649170,183.123428 
	C1779.816772,188.377686 1781.869995,185.746429 1784.142456,183.184753 
	C1781.921509,179.403488 1779.706177,178.802643 1777.649170,183.123428 
M1490.983887,183.414444 
	C1489.427856,182.697952 1487.918823,181.770203 1486.284302,181.406555 
	C1485.850342,181.310043 1484.316772,183.302582 1484.524658,183.720032 
	C1485.106323,184.887894 1486.356323,186.533279 1487.302734,186.507858 
	C1488.539185,186.474655 1489.737183,185.018570 1490.983887,183.414444 
z"/>
<path fill="#B7B6B4" opacity="1.000000" stroke="none" 
	d="
M1511.031982,200.910278 
	C1509.346802,196.954910 1507.515747,193.469620 1506.077637,189.829056 
	C1503.314941,182.835190 1505.224121,173.248672 1513.957764,173.938080 
	C1520.174072,174.428741 1524.220337,180.016327 1522.832397,186.547607 
	C1522.459839,188.300980 1522.458618,190.378021 1523.033081,192.050201 
	C1529.105591,209.727631 1535.425659,227.320129 1541.473999,245.005661 
	C1544.969238,255.225616 1547.995972,265.605042 1551.423828,275.849121 
	C1553.258545,281.331787 1555.540527,286.663300 1557.534790,292.094513 
	C1558.698242,295.262909 1559.692505,298.493408 1561.179199,302.942139 
	C1562.627930,300.989471 1564.158691,299.562805 1564.915894,297.803253 
	C1570.141479,285.660797 1575.194214,273.444031 1580.324707,261.260529 
	C1585.202148,249.678085 1590.042847,238.079529 1595.018433,226.539261 
	C1599.165649,216.920120 1603.672485,207.451416 1607.613037,197.750763 
	C1608.783569,194.868973 1608.959717,191.420151 1608.898926,188.244400 
	C1608.829468,184.623245 1609.346924,180.829575 1613.002563,180.316086 
	C1616.907227,179.767578 1621.852539,178.052460 1624.936157,182.542404 
	C1627.381226,186.102600 1628.201050,190.144287 1625.483032,193.950607 
	C1618.532471,203.684113 1615.832397,215.309891 1610.982544,225.974167 
	C1608.841919,230.681351 1606.961670,235.506454 1604.932983,240.265182 
	C1600.333740,251.053970 1595.703491,261.829651 1591.109375,272.620636 
	C1587.398560,281.336945 1583.728027,290.070374 1580.029419,298.791870 
	C1574.364136,312.151093 1568.697510,325.509735 1563.006226,338.857819 
	C1562.529419,339.975983 1561.861328,341.012573 1560.734619,343.103058 
	C1558.971680,337.893341 1557.558228,333.701813 1556.135254,329.513550 
	C1550.739868,313.634766 1545.537476,297.686920 1539.886108,281.899811 
	C1534.885986,267.931458 1529.147461,254.226776 1524.181885,240.246948 
	C1520.409912,229.627243 1517.380859,218.745071 1513.924805,208.010696 
	C1513.183716,205.708740 1512.028198,203.540222 1511.031982,200.910278 
M1615.156616,186.422195 
	C1613.403564,189.127960 1614.354980,190.855438 1617.793335,192.239532 
	C1618.507812,190.768723 1619.224976,189.292450 1619.942139,187.816177 
	C1618.578735,187.228653 1617.215332,186.641144 1615.156616,186.422195 
M1514.309570,185.993118 
	C1515.609985,185.301300 1516.910522,184.609467 1518.210938,183.917648 
	C1517.729980,183.135513 1517.249023,182.353394 1516.767944,181.571274 
	C1514.528564,181.672012 1512.289185,181.772766 1510.049805,181.873505 
	C1509.914917,182.420135 1509.780029,182.966766 1509.645264,183.513397 
	C1510.930176,184.341690 1512.215088,185.169983 1514.309570,185.993118 
z"/>
<path fill="#B7B6B4" opacity="1.000000" stroke="none" 
	d="
M1701.682495,296.232056 
	C1703.093750,298.640198 1704.257568,300.755096 1706.065674,304.040497 
	C1708.255737,297.480835 1710.021240,291.831055 1712.031616,286.269775 
	C1714.226929,280.196838 1716.773071,274.250183 1718.945312,268.169586 
	C1722.891113,257.123871 1726.562622,245.979691 1730.552490,234.950378 
	C1735.212646,222.068695 1740.049438,209.250229 1744.898315,196.437881 
	C1746.533691,192.116409 1747.601562,188.059784 1746.369019,183.179321 
	C1745.773438,180.821503 1747.591553,176.702560 1749.653809,175.064819 
	C1753.934570,171.665558 1759.012817,172.210510 1762.096558,175.748932 
	C1764.889771,178.954041 1766.278198,182.926620 1763.931152,187.038391 
	C1756.263184,200.472076 1752.873169,215.514053 1747.563354,229.835754 
	C1742.636963,243.122604 1737.248413,256.237488 1732.251465,269.498962 
	C1729.238770,277.494324 1726.608521,285.633240 1723.763794,293.692535 
	C1720.612061,302.621521 1717.380859,311.522552 1714.241699,320.455902 
	C1711.808960,327.378845 1709.464233,334.332733 1707.080444,341.272888 
	C1706.465820,341.236603 1705.851196,341.200317 1705.236572,341.164032 
	C1704.767578,339.626678 1704.457520,338.017456 1703.800781,336.565002 
	C1701.474121,331.419312 1698.865845,326.396149 1696.666992,321.198486 
	C1693.302246,313.244843 1690.290039,305.142242 1686.932007,297.185669 
	C1684.799927,292.133698 1682.272461,287.250092 1679.993652,282.258362 
	C1676.455444,274.507935 1672.804810,266.802368 1669.512329,258.947662 
	C1663.235107,243.973190 1657.276123,228.865219 1650.979858,213.899033 
	C1648.414185,207.800552 1645.528564,201.811447 1642.390381,195.987137 
	C1639.803101,191.185089 1640.910278,183.887833 1645.138550,181.367325 
	C1649.214478,178.937744 1655.602173,180.601990 1657.904053,184.858459 
	C1658.569946,186.089951 1659.216431,187.778503 1658.908325,189.017990 
	C1656.838379,197.342819 1661.881226,203.916977 1664.594238,210.806305 
	C1670.493530,225.787277 1677.452026,240.350876 1683.968384,255.089172 
	C1687.487915,263.049377 1691.043335,270.994385 1694.478394,278.990997 
	C1696.888428,284.601105 1699.122559,290.286804 1701.682495,296.232056 
M1646.534058,191.001831 
	C1648.141357,192.630829 1649.956421,194.640396 1651.878540,191.811630 
	C1652.547852,190.826660 1652.172607,187.785065 1651.439697,187.436142 
	C1648.783936,186.171844 1646.888916,187.590744 1646.534058,191.001831 
M1752.076782,181.590057 
	C1752.834106,183.173981 1753.591553,184.757889 1754.348877,186.341812 
	C1754.898804,186.301651 1755.448608,186.261490 1755.998535,186.221329 
	C1756.567139,184.586273 1757.135864,182.951218 1757.704468,181.316147 
	C1755.992432,181.201859 1754.280518,181.087555 1752.076782,181.590057 
z"/>
<path fill="#000000" opacity="1.000000" stroke="none" 
	d="
M1658.000000,620.000000 
	C1641.724854,620.000000 1625.949585,620.000000 1610.130859,620.000000 
	C1612.846191,594.840637 1634.213745,579.357178 1651.789673,577.225159 
	C1688.163086,572.812805 1709.969482,591.431030 1715.834839,620.000000 
	C1696.665039,620.000000 1677.582520,620.000000 1658.000000,620.000000 
z"/>
<path fill="#000000" opacity="1.000000" stroke="none" 
	d="
M1309.708252,232.787323 
	C1317.777954,224.841751 1327.607178,221.358017 1338.001709,218.994034 
	C1351.321045,215.964890 1363.750244,219.632385 1374.969116,225.875824 
	C1383.557617,230.655518 1390.575562,237.804459 1395.082886,247.381073 
	C1400.336548,258.543335 1403.682007,269.875885 1402.922852,282.153595 
	C1402.331177,291.723389 1400.153687,300.823212 1395.518921,309.570557 
	C1393.025757,314.276093 1390.550537,318.741608 1386.926147,322.520020 
	C1380.210815,329.520905 1372.392700,334.362427 1362.856079,337.289001 
	C1350.862793,340.969482 1339.466675,339.995209 1327.934692,336.437653 
	C1317.150757,333.110870 1308.543335,326.364807 1302.176147,317.381195 
	C1296.899048,309.935608 1293.071411,301.642059 1291.915771,292.135590 
	C1290.329346,279.086182 1290.654785,266.247650 1295.137695,253.955368 
	C1298.051514,245.965439 1302.317383,238.390900 1309.708252,232.787323 
z"/>
<path fill="#000000" opacity="1.000000" stroke="none" 
	d="
M1806.996582,185.010956 
	C1802.861206,189.375870 1802.550659,184.759399 1799.857178,182.080795 
	C1802.597534,181.465546 1804.372314,180.894791 1806.159790,180.852097 
	C1806.427124,180.845703 1806.753418,183.317184 1806.996582,185.010956 
z"/>
<path fill="#000000" opacity="1.000000" stroke="none" 
	d="
M1466.967529,183.874252 
	C1466.088135,185.190475 1465.228394,186.139282 1464.140503,187.339859 
	C1462.671753,185.996368 1461.380127,184.814865 1460.055664,183.603409 
	C1462.447876,180.785599 1464.708496,178.204041 1466.967529,183.874252 
z"/>
<path fill="#000000" opacity="1.000000" stroke="none" 
	d="
M1632.774292,270.271118 
	C1629.770874,267.973083 1632.522583,266.977966 1633.557495,266.149567 
	C1634.165771,265.662628 1636.094849,265.903961 1636.648804,266.520081 
	C1637.248535,267.187042 1637.388062,269.368805 1636.937012,269.658722 
	C1635.881348,270.337219 1634.352417,270.279572 1632.774292,270.271118 
z"/>
<path fill="#000000" opacity="1.000000" stroke="none" 
	d="
M1630.741089,212.658691 
	C1631.958618,211.465149 1632.968140,210.587646 1634.204468,209.513062 
	C1635.163086,211.418091 1635.877930,212.838531 1636.833862,214.738342 
	C1635.373779,215.417572 1633.916382,216.549149 1632.446655,216.565292 
	C1631.822021,216.572159 1631.171753,214.242523 1630.741089,212.658691 
z"/>
<path fill="#000000" opacity="1.000000" stroke="none" 
	d="
M1777.415405,182.838531 
	C1779.706177,178.802643 1781.921509,179.403488 1784.142456,183.184753 
	C1781.869995,185.746429 1779.816772,188.377686 1777.415405,182.838531 
z"/>
<path fill="#000000" opacity="1.000000" stroke="none" 
	d="
M1490.967773,183.794540 
	C1489.737183,185.018570 1488.539185,186.474655 1487.302734,186.507858 
	C1486.356323,186.533279 1485.106323,184.887894 1484.524658,183.720032 
	C1484.316772,183.302582 1485.850342,181.310043 1486.284302,181.406555 
	C1487.918823,181.770203 1489.427856,182.697952 1490.967773,183.794540 
z"/>
<path fill="#000000" opacity="1.000000" stroke="none" 
	d="
M1615.504272,186.237915 
	C1617.215332,186.641144 1618.578735,187.228653 1619.942139,187.816177 
	C1619.224976,189.292450 1618.507812,190.768723 1617.793335,192.239532 
	C1614.354980,190.855438 1613.403564,189.127960 1615.504272,186.237915 
z"/>
<path fill="#000000" opacity="1.000000" stroke="none" 
	d="
M1513.904785,185.995697 
	C1512.215088,185.169983 1510.930176,184.341690 1509.645264,183.513397 
	C1509.780029,182.966766 1509.914917,182.420135 1510.049805,181.873505 
	C1512.289185,181.772766 1514.528564,181.672012 1516.767944,181.571274 
	C1517.249023,182.353394 1517.729980,183.135513 1518.210938,183.917648 
	C1516.910522,184.609467 1515.609985,185.301300 1513.904785,185.995697 
z"/>
<path fill="#000000" opacity="1.000000" stroke="none" 
	d="
M1646.307129,190.693665 
	C1646.888916,187.590744 1648.783936,186.171844 1651.439697,187.436142 
	C1652.172607,187.785065 1652.547852,190.826660 1651.878540,191.811630 
	C1649.956421,194.640396 1648.141357,192.630829 1646.307129,190.693665 
z"/>
<path fill="#000000" opacity="1.000000" stroke="none" 
	d="
M1752.322632,181.281647 
	C1754.280518,181.087555 1755.992432,181.201859 1757.704468,181.316162 
	C1757.135864,182.951218 1756.567139,184.586273 1755.998535,186.221329 
	C1755.448608,186.261490 1754.898804,186.301651 1754.348877,186.341812 
	C1753.591553,184.757889 1752.834106,183.173981 1752.322632,181.281647 
z"/>
</svg>